<?xml version="1.0" encoding="utf-8"?>
<!-- Generator: Adobe Illustrator 24.2.1, SVG Export Plug-In . SVG Version: 6.00 Build 0)  -->
<svg version="1.1" id="Draw_Layer_xA0_Image_1_" xmlns="http://www.w3.org/2000/svg" xmlns:xlink="http://www.w3.org/1999/xlink"
	 x="0px" y="0px" viewBox="0 0 2100 2100" style="enable-background:new 0 0 2100 2100;" xml:space="preserve">
<style type="text/css">
	.st0{fill:#FDFDFD;}
	.st1{fill:#004AAB;}
	.st2{fill:#FEFEFE;}
	.st3{fill:#2D69BA;}
	.st4{fill:#739BD0;}
	.st5{fill:#99B6DD;}
	.st6{fill:#ABC3E3;}
	.st7{fill:#7BA1D3;}
	.st8{fill:#C4D4EB;}
	.st9{fill:#5887C7;}
	.st10{fill:#80C337;}
	.st11{fill:#81C337;}
	.st12{fill:#3665A4;}
	.st13{fill:#3E5D87;}
	.st14{fill:#21579F;}
	.st15{fill:#3464A5;}
	.st16{fill:#376098;}
	.st17{fill:#36639E;}
	.st18{fill:#3165AD;}
	.st19{fill:#3564A1;}
	.st20{fill:#35609B;}
	.st21{fill:#3364A5;}
	.st22{fill:#3564A4;}
	.st23{fill:#2057A0;}
	.st24{fill:#36619A;}
	.st25{fill:#345D94;}
	.st26{fill:#3566A8;}
	.st27{fill:#3867A5;}
	.st28{fill:#2E63AA;}
	.st29{fill:#76BA3F;}
	.st30{fill:#054FA6;}
	.st31{fill:#115A98;}
	.st32{fill:#155D94;}
	.st33{fill:#196290;}
	.st34{fill:#216B87;}
	.st35{fill:#0953A1;}
	.st36{fill:#6DB146;}
	.st37{fill:#2F7A6C;}
	.st38{fill:#276F7D;}
	.st39{fill:#5EA253;}
	.st40{fill:#1D668C;}
	.st41{fill:#66A94D;}
	.st42{fill:#4F945D;}
	.st43{fill:#428769;}
	.st44{fill:#4A8E63;}
	.st45{fill:#579B59;}
	.st46{fill:#257176;}
	.st47{fill:#8BC150;}
	.st48{fill:#9C9C9C;}
	.st49{fill:#D7DDD0;}
	.st50{fill:#3B68A5;}
	.st51{fill:#B1B1B1;}
	.st52{fill:#C5C5C5;}
	.st53{fill:#3C5980;}
	.st54{fill:#89B954;}
	.st55{fill:#88B556;}
	.st56{fill:#34619C;}
	.st57{fill:#88B456;}
	.st58{fill:#85AF57;}
	.st59{fill:#365D91;}
	.st60{fill:#89C646;}
	.st61{fill:#88B558;}
	.st62{fill:#88B754;}
	.st63{fill:#2F63A9;}
	.st64{fill:#3265A8;}
	.st65{fill:#355F97;}
	.st66{fill:#3664A4;}
	.st67{fill:#BDE098;}
	.st68{fill:#C9E5AB;}
	.st69{fill:#B0D983;}
	.st70{fill:#377E6C;}
</style>
<g>
	<g>
		<path class="st0" d="M125.1,1097.97c0-240.13,0.01-480.25-0.09-720.38c0-3.75,0.84-4.59,4.59-4.59
			c603.94,0.1,1207.87,0.1,1811.81,0c3.75,0,4.59,0.84,4.59,4.59c-0.1,371.6-0.1,743.21,0,1114.81c0,3.75-0.84,4.59-4.59,4.59
			c-471.12-0.1-942.23-0.09-1413.35-0.09c0.55-2.82,2.91-2.17,4.7-2.34c25.52-2.47,50.75-6.52,75.46-13.56
			c19.87-5.66,39.04-13.14,57.84-21.63c10.76-4.01,22.01-6.48,32.89-10.17c48.81-16.55,92.84-41.48,132.34-74.57
			c10.87-9.11,20.74-19.22,30.98-28.97c3.04-2.9,2.35-5.46-0.05-8.22c-19.19-22.12-37.58-44.91-56.3-67.44
			c-27.01-32.5-54.11-64.94-80.9-97.62c-3.43-4.18-7.43-7.62-12.77-9.18c-2.95-2.3-4.81-5.5-6.96-8.45
			c-3.97-5.43-6.77-5.91-12.55-1.8c-12.39,8.8-25.36,16.59-39.05,23.2c-29.41,14.21-60.32,22.64-92.95,25.33
			c-36.45,3.01-71.73-1.93-106.26-13.46c-3.63-1.21-7.22-2.55-10.64-4.3c-7.24-6.06-12.53-13.79-17.75-21.46
			c-16.13-23.69-25.61-49.85-28.48-78.42c-4.38-43.58,6.33-83.1,31.55-118.79c1.82-2.57,3.53-5.26,6.16-7.16
			c30.21-22.66,63.91-37.22,101.44-41.79c40.59-4.94,79.75,0.77,116.8,18.66c15.08,7.28,11.06,6.7,21.37-4.56
			c18.01-22.66,35.9-45.42,53.37-68.51c27.72-36.63,55.71-73.05,83.46-109.66c2.62-3.45,5.34-6.83,6.65-11.07
			c2.03-5.5,5.12-10.47,7.71-15.68c3.35-6.77,2.71-9.11-3.66-13.28c-25.33-16.57-52.31-29.87-80.67-40.44
			c-31.07-11.58-63.12-19.02-96.02-22.76c-23.51-2.68-47.09-3.15-70.76-1.56c-26.17,1.76-51.89,5.86-77.22,12.55
			c-20.26,4.72-40.61,9.06-60.33,15.92c-47.99,16.7-91.74,40.85-130.61,73.71c-36.96,31.24-67.87,67.58-92.11,109.5
			c-8.09,13.99-15.28,28.45-21.58,43.34c-0.98,2.31-2.04,4.56-3.41,6.66c-31.92,47.95-51.43,100.56-59.3,157.57
			c-1.25,9.07-1.89,18.2-3.04,27.27C127.19,1095.38,127.83,1097.65,125.1,1097.97z"/>
		<path class="st1" d="M667.03,1459.93c-20.3,10.48-41.76,17.91-63.74,23.87c-23.81,6.46-48.07,10.46-72.7,12.13
			c-0.92,0.06-2.06-0.3-2.54,0.97c-2.33,0-4.67,0-7,0c-1.88-1.06-3.93-0.27-5.88-0.52c-7.53,0-15.06,0-22.58,0
			c-2.04,0-4.07,0-6.11,0c-1.65,0-3.31,0-4.96,0c-27.9,0.04-54.94-5.58-81.61-13.07c-43.43-12.2-83.29-31.92-119.71-58.49
			c-39.63-28.91-72.17-64.45-98.21-106c-21.23-33.89-36.57-70.29-46.47-108.97c-5.88-22.96-9.75-46.25-9.91-70.04
			c0-0.67-0.01-1.33-0.52-1.85c0-1,0-2,0-3c1.04-2.17,0.27-4.48,0.52-6.72c0-6.54,0-13.08,0-19.62c-0.28-2.54,0.59-5.17-0.52-7.66
			c0-1,0-2,0-3c2.02-4.27,1.46-8.94,1.87-13.42c5.73-63.19,25.74-121.43,60.37-174.62c0.52-0.81,1.29-1.46,1.94-2.18
			c1.39,1.97,0.41,3.84-0.32,5.66c-8.86,22.26-15.36,45.2-20.27,68.63c-1.22,5.84-1.68,11.83-3.48,17.55
			c-0.72,1.67-0.82,3.44-0.88,5.22c-0.05,0.76-0.18,1.5-0.36,2.24c-0.7,1.91-0.53,3.92-0.65,5.9c-0.05,0.76-0.18,1.51-0.36,2.25
			c-0.75,2.23-0.48,4.55-0.55,6.83c-0.03,1.07-0.17,2.12-0.4,3.16c-0.89,2.9-0.49,5.88-0.5,8.83c0.01,1.69-0.1,3.38-0.43,5.04
			c-0.93,2.82-0.51,5.72-0.57,8.6c-0.01,10.17,0.01,20.34,0,30.5c0.06,2.86-0.35,5.76,0.53,8.57c0.31,1.37,0.43,2.77,0.45,4.17
			c0.02,2.94-0.35,5.91,0.5,8.81c0.25,1.03,0.38,2.09,0.42,3.15c0.07,2.3-0.2,4.62,0.53,6.87c0.2,0.75,0.32,1.51,0.38,2.27
			c0.09,1.77,0.1,3.55,0.75,5.25c0.68,2.77,1.43,5.53,1.37,8.42c-0.02,1.75-0.1,3.51,0.57,5.2c3.81,17.06,7.03,34.27,12.4,50.94
			c8.33,25.87,18.25,51.01,31.53,74.87c13.74,24.69,29.49,47.9,47.71,69.43c9.99,11.81,20.71,22.93,32.05,33.53
			c16.59,15.51,34.08,29.85,52.98,42.34c25.88,17.1,53.14,31.74,82.29,42.6c26.57,9.9,53.82,17.28,81.89,21.45
			c1.65,0.57,3.38,0.6,5.1,0.69c0.75,0.05,1.48,0.18,2.2,0.35c1.9,0.69,3.9,0.51,5.87,0.64c0.76,0.05,1.51,0.18,2.25,0.36
			c2.23,0.75,4.55,0.48,6.84,0.55c1.07,0.03,2.13,0.17,3.18,0.4c2.96,0.89,5.99,0.49,9,0.47c1.78-0.01,3.54,0.09,5.28,0.47
			c7.4,1.19,14.84,0.37,22.26,0.52c6.11,0.12,12.23,0.13,18.34-0.06c3.15-0.67,6.34-1.03,9.57-0.95c3.03,0.06,6.07,0.4,9.05-0.46
			c1.07-0.26,2.16-0.39,3.27-0.43c2.43-0.04,4.89,0.24,7.22-0.79c9.56-2.26,19.38-2.96,28.98-4.99c5.2-1.1,10.39-2.27,15.61-3.3
			C662.96,1459.07,665.1,1458.15,667.03,1459.93z"/>
		<path class="st2" d="M125.1,1137.96c2.1,3.58,1.37,7.65,1.71,11.45c7.28,81.26,37.35,153.06,90.34,214.93
			c58.1,67.82,131.63,109.45,219.28,126.21c14.73,2.82,29.62,4.44,44.58,5.52c0.36,0.16,0.49,0.34,0.38,0.53
			c-0.11,0.2-0.22,0.3-0.33,0.3c-117.24,0-234.48-0.02-351.72,0.1c-3.61,0-4.35-0.74-4.34-4.34
			C125.12,1374.42,125.1,1256.19,125.1,1137.96z"/>
		<path class="st3" d="M491.94,1496.01c8.06-0.01,16.12-0.01,24.18-0.02c0.28,0.22,0.37,0.43,0.25,0.63
			c-0.11,0.19-0.22,0.28-0.32,0.28c-8,0-16,0-24,0c-0.29-0.16-0.41-0.35-0.35-0.56C491.78,1496.12,491.86,1496.01,491.94,1496.01z"
			/>
		<path class="st4" d="M125.95,1107.92c-0.01,7.04-0.01,14.08-0.02,21.12c-0.31,0.36-0.59,0.35-0.83-0.07c0-7,0-14,0-21
			C125.36,1107.55,125.64,1107.51,125.95,1107.92z"/>
		<path class="st5" d="M125.95,1107.92c-0.28,0-0.57,0.02-0.85,0.05c0-2.33,0-4.67,0-7C127.18,1103.07,125.69,1105.6,125.95,1107.92
			z"/>
		<path class="st6" d="M125.1,1128.96c0.27,0.06,0.55,0.08,0.83,0.07c-0.22,1.98,1.21,4.2-0.83,5.92
			C125.1,1132.96,125.1,1130.96,125.1,1128.96z"/>
		<path class="st7" d="M491.94,1496.01c0.08,0.29,0.12,0.59,0.12,0.89c-2,0-4,0-6,0c-0.3-0.16-0.41-0.34-0.34-0.54
			c0.08-0.21,0.16-0.31,0.26-0.31C487.97,1496.04,489.96,1496.02,491.94,1496.01z"/>
		<path class="st8" d="M485.98,1496.06c0.06,0.28,0.08,0.56,0.08,0.85c-1.67,0-3.33,0-5,0c-0.01-0.28-0.02-0.55-0.05-0.83
			C482.67,1496.07,484.32,1496.06,485.98,1496.06z"/>
		<path class="st9" d="M516.06,1496.9c0-0.31,0.02-0.61,0.07-0.91c1.66,0.25,3.58-0.94,4.93,0.91
			C519.39,1496.9,517.72,1496.9,516.06,1496.9z"/>
		<path d="M732.66,919.68c0.23-3.01,2.9-4.34,4.47-6.39c35.84-46.78,71.74-93.52,107.63-140.26c0.61-0.79,1.23-1.57,1.87-2.34
			c4.06-4.91,4.89-5,9.37-0.58c47.5,46.91,81.64,102.12,102.42,165.54c1.16,3.54,2.58,4.49,6.1,4.56
			c63.14,1.3,126.27,2.93,189.42,3.97c10.24,0.17,12.88,5.08,12.85,13.62c-0.15,39.82-0.07,79.63-0.07,119.67
			c0.81,0.08,1.25-1.67,2.1-2.63c38.69-43.4,77.37-86.81,115.91-130.35c3.53-3.98,7.51-5.66,12.56-5.57
			c1.83,0.03,3.67-0.01,5.5-0.01c10.61,0.05,10.63,0.06,10.73-10.83c0.13-13.33,0.22-26.66,0.34-39.99
			c0.06-6.01,1.03-7.01,6.92-7.02c15-0.01,30-0.11,44.99,0.12c3.34,0.05,4.15-0.79,4.15-4.05c-0.04-21.33,0.13-42.66,0.25-63.98
			c0.05-8.72,0.51-9.15,9.45-9.18c16.5-0.04,33-0.19,49.49-0.05c3.45,0.03,4.7-0.96,4.68-4.41c-0.1-16.32-0.05-32.65-0.05-49.36
			c-9.91,3.54-18.99,1.72-27.91-2.9c-4.28-2.22-9.08-1.66-13.66-0.43c-3.37,0.91-6,0.12-6.02-3.64c-0.04-8.65-0.57-17.29,0.3-25.95
			c0.54-5.37,4.12-7.26,8.48-8.28c4.93-1.16,9.58-0.03,13.83,2.7c1.82,1.17,3.59,2.41,5.41,3.58c7.49,4.84,11.89,4.7,19.13-0.6
			c1.07-0.79,2.05-1.71,3.14-2.47c2.34-1.64,4.91-3.54,7.77-2.09c2.99,1.52,4.21,4.49,4.16,7.93c-0.07,4.33-0.02,8.66-0.02,13
			c0,22.49,0.14,44.99-0.12,67.48c-0.05,4.57,1.29,5.6,5.58,5.37c7.48-0.4,14.99-0.25,22.49-0.2c5.84,0.04,7.83,2.07,7.8,7.77
			c-0.05,9.16-0.07,18.33-0.33,27.49c-0.07,2.65,0.66,3.38,3.3,3.33c10.83-0.2,21.66-0.19,32.49-0.23c7.37-0.03,9.3,1.84,9.23,9
			c-0.27,27.49-0.47,54.99-0.95,82.47c-0.07,3.85,0.91,4.84,4.6,4.55c4.47-0.35,8.99-0.08,13.49-0.11c2.71-0.02,5.01,1.22,4.82,3.88
			c-0.23,3.3,1.6,5.26,3.21,7.48c20.47,28.13,40.97,56.23,61.46,84.35c0.36,0.49,0.74,0.97,1.43,1.89
			c4.93-6.77,9.6-13.19,14.27-19.62c20.92-28.82,41.93-57.58,62.66-86.54c3.07-4.29,5.34-4.86,9.97-2.28
			c78.26,43.57,156.62,86.97,234.95,130.41c7.81,4.33,7.83,4.64,2.26,11.22c-13.24,15.63-26.38,31.34-39.62,46.97
			c-28.1,33.17-56.33,66.23-84.26,99.54c-3.95,4.71-8.28,6.47-14.14,6.5c-86.82,0.5-173.63,1.11-260.45,1.67
			c-197.46,1.28-394.92,2.56-592.38,3.71c-4.57,0.03-6.94,1.21-8.87,5.57c-12.11,27.33-27.58,52.7-45.59,76.54
			c-6.66,8.81-7.96,8.84-15,0.16c-30.7-37.92-61.37-75.87-92.05-113.81c-6.81-8.42-13.44-16.98-20.48-25.2
			c-3.64-4.24-6.13-8.57-5.23-14.31c-0.79-1.18-0.72-2.51-0.69-3.85c0.45-21.61,0.41-43.24,0.05-64.84
			c-0.17-10.28-1.05-20.57-0.83-30.87c0.37-3.93,0.1-7.88,0.18-11.82c-0.06-2.8,0.34-5.63-0.5-8.38c-0.26-1.07-0.39-2.16-0.44-3.27
			c-0.04-2.39,0.19-4.81-0.62-7.14c-0.39-1.85-0.42-3.72-0.43-5.6c0.07-1.83,0.11-3.66-0.64-5.39
			c-2.66-14.88-6.09-29.58-10.14-44.14c-3.91-14.08-8.1-28.06-13.72-41.58C733.88,926.12,732.1,923.21,732.66,919.68z"/>
		<path d="M162.14,1111.78c-0.06-0.64-0.13-1.29-0.19-1.93c-0.94-2.29,0.34-4.83-0.81-7.09c-0.06-0.96-0.11-1.91-0.17-2.87
			c-1.04-2.95,0.4-6.14-0.83-9.07c-0.07-1.32-0.13-2.63-0.2-3.95c-0.7-2.74-0.16-5.53-0.33-8.29c0-10.4,0-20.8,0-31.2
			c0.19-2.78-0.41-5.59,0.36-8.35c0.06-1.62,0.12-3.23,0.18-4.85c1.18-2.96-0.23-6.15,0.82-9.12c0.06-0.97,0.11-1.93,0.17-2.9
			c1.14-2.26-0.16-4.81,0.82-7.09c0.05-0.69,0.09-1.38,0.14-2.07c1.2-1.85-0.1-4.05,0.84-5.94c0.07-0.63,0.14-1.26,0.21-1.89
			c1-1.59-0.08-3.52,0.82-5.12c4.03-23.41,9.3-46.51,17.06-68.99c2.69-7.79,5.48-15.55,8.22-23.32
			c18.31-43.57,42.7-83.34,74.45-118.41c60.46-66.78,134.77-109.59,222.94-128.25c3.41-0.72,6.83-1.42,10.25-2.12
			c12.02-2.44,24.02-4.97,36.29-5.83c8.62-0.61,17.24-1.28,25.87-1.58c5.99,0.22,11.98,0.04,17.96,0.09
			c51.92,1.51,101.99,11.76,149.95,31.91c31.6,13.28,61.17,30.11,88.6,50.68c2.52,1.89,4.69,3.77,3.91,7.33
			c-1.1,3.53-3.15,6.54-5.36,9.44c-38.46,50.49-76.88,101.01-115.43,151.44c-7.15,9.36-14.8,18.35-22.21,27.51
			c-3.08,2.12-5.44,0.02-7.63-1.56c-9.33-6.71-19.45-11.93-29.78-16.88c-12.36-5.91-25.45-9.26-38.73-12.11
			c-1.78-0.38-3.59-0.6-5.29-1.32c-1.64-0.85-3.43-0.75-5.21-0.79c-1.07-0.03-2.13-0.17-3.17-0.41c-2.73-0.79-5.5-0.48-8.27-0.38
			c-6.22,0.03-12.44,0.05-18.65,0.02c-2.77-0.13-5.54-0.42-8.28,0.34c-1.04,0.26-2.09,0.38-3.16,0.43
			c-1.76,0.03-3.52-0.02-5.22,0.56c-29.34,5.06-56.18,15.9-79.54,34.65c-7.51,6.03-14.87,12.26-20.96,19.82
			c-1.98,2.45-4.79,4.09-6.79,6.54c-18.9,22.81-30.86,48.97-35.42,78.08c-8.71,55.55,6.01,104.39,43.95,146.08
			c6.87,4.96,12.84,11,19.44,16.3c24.19,19.41,51.89,30.54,82.38,35.17c2.46,0.37,4.99,0.04,7.44,0.65
			c3.24,0.79,6.51,0.39,9.78,0.34c3.44-0.01,6.88-0.02,10.31-0.01c3.56,0.08,7.12,0.44,10.65-0.3c20.76-1.83,40.55-7.27,59.26-16.44
			c23.39-11.47,42.79-27.91,59.09-48.11c1.67-2.07,3.33-4.15,5.02-6.21c1.34-1.63,2.92-2.79,5.19-1.7
			c6.36,0.51,9.81,5.19,13.41,9.51c19.39,23.27,38.7,46.62,58.07,69.91c24.27,29.17,48.57,58.32,72.86,87.47
			c2.33,2.8,4.67,5.59,7.05,8.35c2.3,2.66,2.61,5.05-0.09,7.81c-28.8,29.44-60.93,54.53-96.97,74.55
			c-29.46,16.37-60.45,28.91-93.01,37.6c-2.4,0.64-4.79,1.35-7.18,2.03c-9.21,1.77-18.4,3.63-27.62,5.29
			c-7.79,1.4-15.61,2.56-23.42,3.82c-2.25,0.99-4.77-0.34-7,0.82c-0.99,0.06-1.98,0.12-2.98,0.18c-2.99,1.03-6.2-0.38-9.17,0.82
			c-2.97-0.24-5.86,0.15-8.7,0.99c-9.21-1.03-18.45-0.14-27.67-0.45c-4.77-0.16-9.57,0.44-14.32-0.34c-1.6-0.06-3.2-0.13-4.8-0.19
			c-2.99-1.18-6.19,0.19-9.19-0.8c-0.99-0.06-1.97-0.12-2.96-0.18c-2.24-1.18-4.78,0.14-7.04-0.83c-0.68-0.06-1.37-0.11-2.05-0.17
			c-1.86-1.17-4.08,0.13-5.97-0.85c-0.67-0.05-1.34-0.09-2.01-0.14c-1.52-1.12-3.43,0.04-4.99-0.84
			c-15.2-2.12-30.18-5.02-44.95-9.42c-8.72-2.6-17.65-4.72-26.21-7.81c-13.31-4.81-26.45-10.01-39.34-16.02
			c-13.58-6.33-26.51-13.71-39.46-21.09c-14.21-8.1-27.45-17.76-40.26-27.94c-8.33-6.62-16.68-13.24-24.58-20.35
			c-6.77-6.1-12.88-12.94-19.33-19.4c-13.3-13.33-24.92-28.1-36.15-43.13c-10.79-14.44-19.77-30.08-28.6-45.8
			c-18.16-32.36-30-67.07-38.93-102.88c-1.83-7.35-2.92-14.88-4.36-22.33c-0.91-1.52,0.31-3.43-0.87-4.9
			c0.47-3.11-0.79-6.01-1.12-9.02C162.08,1115.32,163.19,1113.38,162.14,1111.78z"/>
		<path class="st10" d="M552.65,1236.03c-29.96-2.06-56.86-12.67-81.4-29.55c-9.84-6.77-19.09-14.33-26.91-23.48
			c21.28,7.8,43.03,13.65,65.62,16.24c38.63,4.43,76.32,0.44,113.16-11.96c25.1-8.45,48.25-20.65,69.71-36.12
			c5.87-4.24,9.23-3.58,13.28,2.29c2.17,3.14,4.52,6.16,6.78,9.24c-2.26,0.35-3.79,1.57-5.17,3.44
			c-26.01,35.1-60.17,57.79-102.93,67.23c-6.44,1.42-12.92,2.87-19.61,2.62c-3.63,1.19-7.46-0.26-11.11,0.83
			c-3.69,0-7.38,0-11.07-0.01C559.61,1235.77,556.04,1237.1,552.65,1236.03z"/>
		<path class="st11" d="M819.5,741.56c-0.11-3.34-2.81-4.72-5.01-6.36c-43.38-32.39-91.25-55.42-143.63-69.18
			c-30.46-8-61.51-11.55-92.86-13.14c-6.3-0.58-12.6-0.58-18.9,0c-19.81,1.33-39.65,2.34-59.22,6.09c-0.95,0.18-1.98,0-2.97-0.01
			c14.87-4.94,30.29-7.44,45.7-9.77c23.25-3.52,46.67-4.93,70.18-4.11c76.77,2.67,147.44,24.8,211.89,66.66
			c7.14,4.64,5.98,7.95,1.73,16.16C824.07,732.44,821.29,736.75,819.5,741.56z"/>
		<path class="st1" d="M761.92,1032.98c0.06,0.98,0.12,1.95,0.19,2.93c0.86,2.59,0.2,5.25,0.4,7.87c0.23,4.03-0.47,8.09,0.38,12.11
			c1.15,31.42,0.92,62.86,1.03,94.3c0.01,1.95-0.65,3.9-1,5.85c-6-1.39-7.2-2.99-7.1-9.91c0.59-43.26-5.15-85.64-17.72-127.07
			c-6.19-20.39-13.68-40.28-22.99-59.47c-1.59-3.27-2.67-6.73-4.68-9.85c-2.44-3.79-1.01-7.49,2.02-10.34
			c5.21-4.9,10.62-9.59,15.96-14.36c1.73-1.55,3.26-3.26,4.25-5.38c6.45,12.85,10.06,26.76,14.9,40.2
			c3.28,9.11,4.25,18.88,7.37,28.09c2.96,8.73,3.24,18.04,5.12,27.02c1.09,1.53-0.16,3.47,0.89,5.01c0.05,1.93,0.09,3.85,0.14,5.78
			C762.19,1028.08,760.85,1030.67,761.92,1032.98z"/>
		<path class="st1" d="M547.99,896.12c0.9-0.06,1.81-0.11,2.71-0.17c2.68-1.09,5.6,0.21,8.29-0.81c6.72-0.46,13.43-0.66,20.15,0.01
			c2.66,1,5.55-0.3,8.2,0.8c0.92,0.06,1.84,0.12,2.77,0.19c1.6,0.92,3.53-0.17,5.12,0.82c8.89,2.02,17.89,3.63,26.62,6.19
			c5.5,1.62,10.73,4.3,16.06,6.58c11.88,5.07,23.1,11.15,33.4,18.93c1.57,1.19,3.31,1.45,5.18,1.29c-2.69,3.37-5.39,6.74-8.06,10.12
			c-2.41,3.05-4.85,1.06-7.07-0.11c-12.7-6.66-25.88-12.17-39.72-15.91c-65.36-17.64-125.81-7.04-181.28,31.82
			c-1.48,1.04-3.03,1.98-4.55,2.97c7.65-11.02,17.5-19.85,27.93-28.09c18.27-14.42,38.72-24.58,61.28-30.2
			c5.83-1.45,11.6-3.69,17.77-3.63C544.43,896,546.37,897.06,547.99,896.12z"/>
		<path class="st12" d="M546.13,1471.04c13.13-0.04,26.25-0.09,39.38-0.13c0.96,0,2.03-0.19,2.62,0.92
			c-12.75,0.02-25.51,0.05-38.26,0.05C548.58,1471.89,547.18,1472.18,546.13,1471.04z"/>
		<path class="st13" d="M159.94,1046.95c0,10.69,0,21.38,0,32.07c-0.31,0.41-0.58,0.36-0.82-0.07c0.01-10.65,0.01-21.3,0.02-31.95
			C159.38,1046.56,159.65,1046.52,159.94,1046.95z"/>
		<path class="st14" d="M596.84,1470.85c2.95-1.44,6.08-0.89,9.17-0.82C603.08,1471.8,599.89,1470.56,596.84,1470.85z"/>
		<path class="st15" d="M532.14,1470.05c3.09-0.06,6.24-0.72,9.19,0.8C538.28,1470.54,535.08,1471.82,532.14,1470.05z"/>
		<path class="st16" d="M160.97,1025.07c0.04,3.07,0.76,6.19-0.82,9.12C160.42,1031.14,159.2,1027.97,160.97,1025.07z"/>
		<path class="st17" d="M160.14,1090.82c1.54,2.91,0.89,6.02,0.83,9.07C159.18,1097.01,160.46,1093.84,160.14,1090.82z"/>
		<path class="st18" d="M159.12,1078.95c0.27,0.02,0.55,0.04,0.82,0.07c0,2.62-0.01,5.24-0.01,7.85
			C158.27,1084.38,159.4,1081.59,159.12,1078.95z"/>
		<path class="st19" d="M159.94,1046.95c-0.27,0.02-0.54,0.03-0.81,0.05c0.27-2.66-0.88-5.46,0.83-7.96
			C159.96,1041.67,159.95,1044.31,159.94,1046.95z"/>
		<path class="st20" d="M161.97,1015.08c0.1,2.4,0.67,4.86-0.82,7.08C161.38,1019.8,160.28,1017.28,161.97,1015.08z"/>
		<path class="st21" d="M161.14,1102.76c1.5,2.22,0.9,4.69,0.81,7.09C160.26,1107.65,161.4,1105.12,161.14,1102.76z"/>
		<path class="st22" d="M522.14,1469.05c2.39-0.08,4.84-0.68,7.04,0.83C526.84,1469.59,524.33,1470.73,522.14,1469.05z"/>
		<path class="st23" d="M608.98,1469.86c2.2-1.4,4.62-0.93,7-0.82C613.82,1470.73,611.32,1469.59,608.98,1469.86z"/>
		<path class="st15" d="M162.95,1007.08c0.11,2.03,0.61,4.12-0.84,5.94C162.38,1011.04,161.35,1008.87,162.95,1007.08z"/>
		<path class="st24" d="M514.12,1468.03c2.04-0.09,4.15-0.62,5.97,0.85C518.1,1468.65,515.92,1469.64,514.12,1468.03z"/>
		<path class="st25" d="M163.98,1000.07c0.13,1.77,0.56,3.59-0.82,5.12C163.26,1003.45,162.47,1001.58,163.98,1000.07z"/>
		<path class="st26" d="M507.12,1467.05c1.73-0.12,3.51-0.53,4.99,0.84C510.44,1467.68,508.58,1468.54,507.12,1467.05z"/>
		<path class="st27" d="M162.14,1111.78c1.33,1.55,0.92,3.38,0.83,5.16C161.45,1115.42,162.32,1113.52,162.14,1111.78z"/>
		<path class="st28" d="M164.09,1125.97c1.43,1.43,0.96,3.2,0.87,4.91C163.46,1129.46,164.32,1127.62,164.09,1125.97z"/>
		<path class="st2" d="M858.45,1242.26c-19.42-24.11-38.83-48.24-58.3-72.31c-1.78-2.19-2.43-4.34-2.42-7.22
			c0.13-41.13,1.36-82.27-1.08-123.37c-0.83-13.92-1.54-27.85-3.49-41.68c-1.24-8.74-3.34-17.32-5.99-25.69
			c-5.04-15.96-9.74-32.1-18.22-46.72c-0.99-1.71-0.88-2.88,0.32-4.42c19.24-24.64,38.43-49.33,57.64-74.01
			c2.4,0.53,3.36,2.61,4.55,4.36c17.84,26.3,32.22,54.38,43.33,84.15c11.35,30.41,18.8,61.78,22.3,94.02
			c1.94,17.85,2.99,35.81,2.28,53.79c-2.14,54.01-13.77,105.79-36.85,154.82C861.68,1239.77,861.46,1242.42,858.45,1242.26z"/>
		<path class="st2" d="M1596.7,1086.93c-0.22,18.14-0.56,36.29-0.59,54.43c-0.01,4.4-2.82,3.21-5.02,3.22
			c-46.79,0.18-93.59,0.3-140.38,0.48c-18.82,0.07-37.64,0.15-56.45,0.48c-3.58,0.06-4.41-0.89-4.33-4.37
			c0.39-17.48,0.57-34.96,0.65-52.45c0.01-2.93,0.58-3.92,3.79-3.95c22.15-0.16,44.29-0.68,66.44-0.81
			c4.61-0.03,6.59-1.17,6.48-6.19c-0.2-9.64,0.19-19.29,0.43-28.93c0.11-4.52-1.45-6.24-6.41-6.1c-21.97,0.64-43.95,0.75-65.93,1.24
			c-3.46,0.08-4.72-0.34-4.63-4.41c0.46-21.47,0.57-42.96,0.57-64.43c0-3.74,0.97-4.66,4.76-4.58c15.15,0.29,30.3,0.16,45.46,0.18
			c21.8-0.57,43.61-0.07,65.41-0.27c3.45-0.03,4.88,2.49,6.54,4.73c20,27.04,40.2,53.93,60.42,80.82
			c6.9,9.18,13.52,18.58,20.85,27.43C1595.62,1084.51,1596.17,1085.71,1596.7,1086.93z"/>
		<path class="st2" d="M1132.07,1063.47c0,26.48-0.1,52.97,0.11,79.45c0.03,4.13-1.32,4.79-5.04,4.8
			c-50.98,0.12-101.95,0.36-152.93,0.74c-3.91,0.03-4.81-0.79-4.02-4.66c11.25-54.53,11.05-109.09-0.09-163.62
			c-0.74-3.62-0.34-4.62,3.83-4.52c51.46,1.3,102.92,2.4,154.39,3.36c4.3,0.08,5.33,0.9,5.27,5.5c-0.34,26.31-0.17,52.63-0.17,78.95
			C1132.98,1063.47,1132.52,1063.47,1132.07,1063.47z"/>
		<path class="st2" d="M1884.21,1087.99c-14.8,17.56-29.61,35.1-44.36,52.69c-1.35,1.61-2.91,1.89-4.83,1.9
			c-66.77,0.4-133.54,0.82-200.31,1.32c-2.77,0.02-3.72-0.63-3.66-3.56c0.43-24.31,0.72-48.61,1-72.92
			c0.02-1.77,0.59-3.16,1.62-4.56c19.23-26.32,38.43-52.66,57.64-79c1.98-1.01,3.58,0.19,5.13,1.04
			c21.78,11.87,43.7,23.48,65.5,35.33c19.89,10.82,39.88,21.46,59.77,32.27c19.6,10.65,39.33,21.07,58.82,31.91
			C1882.02,1085.24,1884.1,1085.64,1884.21,1087.99z"/>
		<path class="st10" d="M858.45,1242.26c4.39-5.96,6.71-12.94,9.44-19.67c16.96-41.81,27.24-85.11,29.4-130.31
			c4.29-89.81-19.7-171.44-70.4-245.44c4.62-8.09,11.29-14.66,16.58-22.27c2.12-3.05,6.32-2.14,9.32,1.34
			c14.48,16.75,27.19,34.77,38.41,53.86c22.77,38.73,37.77,80.32,45.61,124.49c1.03,5.82,2.55,11.67,2.2,17.7
			c1.16,1.88-0.16,4.11,0.86,6.01c0.07,1.22,0.14,2.44,0.21,3.67c1.04,2.69-0.22,5.6,0.78,8.3c0.25,2.38,0.5,4.76,0.75,7.15
			c-0.23,13.59-0.17,27.18-0.03,40.78c-0.24,2.38-0.47,4.76-0.71,7.14c-1.06,2.63,0.32,5.5-0.83,8.12c-0.06,0.97-0.11,1.93-0.17,2.9
			c-0.96,2,0.17,4.26-0.78,6.26c-1.6,20.7-6.31,40.79-12.13,60.62c-8.33,28.36-19.49,55.54-34.92,80.86
			c-1.55,2.55-3.33,4.96-5.04,7.42c-3.24,4.67-4.76,5.07-9.51,1.33C870.16,1256.72,863.73,1250.02,858.45,1242.26z"/>
		<path class="st2" d="M1209.86,1083.78c21.97-24.69,43.76-49.19,65.57-73.69c10.74-12.07,21.53-24.1,32.18-36.24
			c1.8-2.05,3.6-2.93,6.36-2.89c10.33,0.17,20.66,0.18,30.99,0c3.02-0.05,3.93,0.67,3.9,3.84c-0.63,55.81-1.16,111.62-1.58,167.43
			c-0.02,3.21-1.03,4.19-3.97,3.7c-0.32-0.05-0.67-0.01-1-0.01c-7.16,0.01-15.1,1.96-21.27-0.51c-5.99-2.4-10.55-8.89-15.9-13.41
			c-4.48-3.78-9.33-6.94-14.26-10.03c-19.34-12.12-39.52-22.48-61.15-29.94C1223.16,1089.77,1216.86,1086.72,1209.86,1083.78z"/>
		<path class="st10" d="M1722.91,1174.8c29.29-2.14,58.64-0.15,88.61-1.85c-1.24,3.29-3.45,5.06-5.18,7.12
			c-4.06,4.85-8.5,9.42-12.19,14.53c-2.69,3.72-5.81,4.59-10.12,4.61c-53.27,0.24-106.54,0.65-159.81,1.01
			c-0.66,0-1.32-0.1-1.98-0.16c-1.04,0.5-2.13,0.4-3.22,0.26c-2.7-0.69-5.45-0.24-8.18-0.37c-2.79,0.12-5.6-0.33-8.35,0.46
			c-13.27,0.08-26.54,0.01-39.81,0.04c-1.83,0-3.75,0.19-5.22-1.12c-4.25-3.81-9.57-4.23-14.83-4.95c-2.72-0.37-6.27-0.28-5.99-4.3
			c0.25-3.62,2.82-5.45,6.5-5.51c0.83-0.01,1.66-0.05,2.49-0.07c8.42-0.21,9.1-0.74,11.26-8.71c4.64-0.89,9.37,0.27,14.02-0.62
			c27.01-0.26,54.02-0.53,81.03-0.79c2.09,0.31,4.23-0.16,6.32,0.34c4.34,0.35,8.68,0.58,13.01-0.17c2-0.12,4.01-0.04,6.01-0.06
			c3.59,0,7.18,0,10.77,0c3.71,0,7.41,0,11.12,0C1707.07,1174.68,1715,1174.05,1722.91,1174.8z"/>
		<path class="st1" d="M1103.06,1203.75c-4.5,0.07-8.99,0.17-13.49,0.21c-43.48,0.33-86.97,0.65-130.45,0.97
			c-1.82,0.01-3.64,0-5.92,0c2.71-8.24,5.33-16.08,7.86-23.94c0.9-2.79,3.15-1.98,5-1.99c15.5-0.08,30.99-0.03,46.49-0.12
			c49.82-0.29,99.63-0.62,149.45-0.93c1.33-0.01,2.66,0.09,3.99,0.15c2.92,2.97,6.29,4.48,10.63,4.55c5.36,0.08,6.12,1.95,4.91,7
			c-1.36,5.65-4.94,7.5-10.19,9.26c-16.85,5.68-34.12,4.41-51.35,4.55C1114.35,1203.5,1108.69,1203.04,1103.06,1203.75z"/>
		<path class="st2" d="M1406.26,884.06c0-16.49,0.08-32.98-0.07-49.47c-0.03-3.36,0.71-4.59,4.37-4.52
			c13.99,0.29,27.99,0.31,41.98,0.2c3.14-0.02,3.9,0.91,3.87,3.96c-0.36,33.31-0.64,66.63-0.75,99.95c-0.01,3.77-1,4.63-4.79,4.52
			c-13.81-0.37-27.64-0.37-41.46-0.25c-3.14,0.03-3.87-0.87-3.84-3.92c0.15-16.82,0.07-33.65,0.07-50.47
			C1405.84,884.06,1406.05,884.06,1406.26,884.06z"/>
		<path class="st10" d="M1884.21,1087.99c-14.56-7.98-29.07-16.02-43.67-23.91c-48.38-26.14-96.8-52.22-145.21-78.31
			c-1.31-0.71-2.69-1.28-4.03-1.92c3.1-4.32,6.38-8.53,9.24-13c1.76-2.74,3.19-2.78,5.93-1.24c33.51,18.81,67.09,37.5,100.67,56.18
			c28.06,15.6,56.12,31.22,84.28,46.63c3.71,2.03,3.97,3.46,1.08,6.32C1889.56,1081.65,1886.95,1084.89,1884.21,1087.99z"/>
		<path class="st10" d="M1596.7,1086.93c-2.53-1.2-3.95-3.51-5.53-5.62c-26.64-35.57-53.3-71.14-79.83-106.8
			c-2.01-2.7-4.03-3.79-7.41-3.77c-20.8,0.13-41.61,0.03-62.4,0c5.79-0.93,11.61-0.44,17.41-0.47c23.32-0.1,46.65-0.01,69.97-0.12
			c2.96-0.01,4.82,0.85,6.6,3.32c19.61,27.13,39.34,54.17,59.1,81.19c2.09,2.86,3.19,5.32,2.68,9.32
			C1596.32,1071.54,1596.81,1079.28,1596.7,1086.93z"/>
		<path class="st2" d="M1252.69,1146.67c-4.75,0-9.49-0.02-14.24,0c-22.97,0.1-45.94,0.15-68.91,0.4c-3.35,0.04-4.67-0.6-4.46-4.28
			c0.37-6.47,0.34-12.98,0.21-19.47c-0.09-4.61,1.63-6.56,6.45-6.49c13.86,0.2,26.81,4.3,39.61,8.92
			c11.53,4.16,22.86,8.89,33.9,14.24C1248.13,1141.38,1250.73,1143.07,1252.69,1146.67z"/>
		<path class="st2" d="M1500.87,905.5c0,9.66-0.09,19.33,0.06,28.99c0.04,2.74-0.62,3.82-3.55,3.61c-3.65-0.26-7.34-0.21-10.99,0.01
			c-2.75,0.17-3.3-0.91-3.26-3.45c0.3-19.16,0.51-38.32,0.63-57.48c0.02-2.53,0.58-3.76,3.3-3.26c0.81,0.15,1.67,0.01,2.49,0.09
			c3.95,0.38,9.42-1.73,11.46,0.88c1.9,2.44,0.21,7.64,0.18,11.62c-0.04,6.33-0.01,12.66-0.01,18.99
			C1501.08,905.5,1500.97,905.5,1500.87,905.5z"/>
		<path class="st29" d="M1618.69,1199.75c1.18,0.1,2.37,0.21,3.55,0.31c-0.79,0.2-1.59,0.56-2.38,0.56
			c-33.95,0.07-67.9,0.12-101.86,0.16c-2.06-8.88-2.63-9.31-12.11-9.35c-3.5-0.01-7,0.15-10.48-0.1c-1.88-0.13-4.63,0.13-4.57-2.55
			c0.05-2.33,2.63-1.97,4.38-2.18c0.66-0.08,1.35-0.13,1.99-0.02c8.68,1.45,16.56-2.81,24.94-3.56c2.51-0.22,3.95-2.25,5.03-4.44
			c0.73-1.48,1.36-3.16,3.46-3.1c8.78,0.27,17.57-0.67,26.33,0.51c1.66,5.25-0.85,9.39-6.19,9.9c-2.48,0.24-5.04,0.36-7.48-0.01
			c-3.88-0.6-5.53,2.22-5.69,4.68c-0.16,2.58,3.01,2.11,5.08,2.43c5.75,0.91,12.1,0.27,16.1,6.04c0.83,1.2,2.42,0.9,3.74,0.9
			c13.49-0.03,26.98-0.07,40.47-0.1c2.58-0.77,5.23-0.18,7.84-0.36C1613.45,1199.61,1616.09,1199.16,1618.69,1199.75z"/>
		<path class="st30" d="M1103.06,1203.75c1.42-1.28,3.16-0.76,4.77-0.77c10.29-0.04,20.63-0.56,30.87,0.13
			c9.54,0.65,18.25-1.98,27.09-4.58c1.58-0.46,3.24-1.37,4.77-1.22c7.85,0.8,8.47-5.67,10.62-10.44c0.74-1.64-0.6-2.79-2.39-2.89
			c-1.66-0.09-3.32-0.08-4.98-0.03c-4.2,0.14-7.07-1.45-7.84-5.87c11.67-0.04,23.33-0.08,35-0.12c7.15,7.2,6.92,15.88,4.98,24.9
			C1171.66,1203.13,1137.37,1204.28,1103.06,1203.75z"/>
		<path class="st31" d="M1249.06,1202.72c-11.69,0.04-23.39,0.08-35.08,0.12c-2.08-5.15,0.1-9.53,6.24-11.67
			c5.18-1.81,10.62-2.66,16.13-2.56c3.5,0.07,5.74-0.33,4.9-4.87c-0.5-2.75,1.15-5.09,3.98-6.2c3.99-0.19,7.98,0.08,11.96-0.12
			c3.34-0.17,3.95,1.47,3.5,4.32c-1.21,7.78-0.74,8.82,6.2,11.78c2.66,1.14,4.12,3.26,5.71,5.35c0.65,0.85,1.89,1.71,1.11,2.97
			c-0.6,0.97-1.82,0.52-2.76,0.55C1263.66,1202.62,1256.35,1202.08,1249.06,1202.72z"/>
		<path class="st32" d="M1249.06,1202.72c7.83-1.83,15.8-0.05,24.12-1.03c-3.09-2.7-4.3-6.45-9.17-7.71
			c-5.77-1.5-6.8-6.03-4.51-12.27c0.94-2.56,0.18-3.79-2.61-3.75c-3.98,0.06-7.96,0.05-11.94,0.07c-6.08,2.13-12.15,2.73-18.18-0.19
			c0.79-0.2,1.58-0.58,2.38-0.58c20.61-0.06,41.21-0.07,61.82-0.1c1.04,1.29,0.23,2.54-0.14,3.76c-0.79,2.61-0.41,4.99,1.49,6.94
			c2.24,2.3,2.88,5.1,3.18,8.15c0.53,5.47,0.3,5.84-5.3,6.4C1276.49,1203.12,1262.78,1202.9,1249.06,1202.72z"/>
		<path class="st0" d="M1342.01,924.28c0-3.49,0.15-6.99-0.05-10.47c-0.15-2.63,0.36-3.83,3.43-3.73
			c6.97,0.23,13.96,0.17,20.94-0.05c2.91-0.09,3.63,0.83,3.49,3.67c-0.36,7.3-0.41,14.61-0.5,21.92c-0.02,2.05-0.12,3.34-2.9,3.24
			c-7.14-0.25-14.29-0.18-21.44-0.06c-2.35,0.04-3.26-0.61-3.14-3.06c0.18-3.81,0.05-7.64,0.05-11.47
			C1341.93,924.28,1341.97,924.28,1342.01,924.28z"/>
		<path class="st33" d="M1290.2,1202.41c4.47-1.6,6.27-8.38,2.42-12.01c-4.59-4.33-4.32-8.43-1.65-13.24
			c7.99-0.03,15.98-0.05,23.97-0.08c0.58,1.16,0.02,2.26-0.14,3.39c-0.61,4.35,0.78,6.6,4.86,7.91c4.99,1.6,5.13,1.65,3.23,6.87
			c-0.82,2.25,0.62,4.68-0.92,6.75C1311.39,1202.6,1300.8,1203.18,1290.2,1202.41z"/>
		<path class="st34" d="M1324.97,1177.05c11.67-0.05,23.35-0.11,35.02-0.16c0.79,1.4,0.33,2.9,0.35,4.35
			c0.04,2.64,0.83,4.96,3.36,6.11c3.48,1.58,3.2,3.61,1.14,6.14c-2.15,2.64-1.1,7.51-5.84,8.35c-1.68,0-3.37,0.01-5.05,0.01
			c-2.83-2.07-5.67-3.95-9.47-3.76c-2.28,0.11-4.3-1.13-5.43-3.06c-1.81-3.09-4.3-4.52-7.78-5.44
			C1324.95,1187.92,1322.6,1182.69,1324.97,1177.05z"/>
		<path class="st35" d="M1226.77,1177.84c6.06,0.06,12.12,0.12,18.18,0.18c-2.15,2.69-3.7,5.43-1.87,9.03
			c1.46,2.88-0.65,2.97-2.63,2.89c-5.99-0.25-11.88,0.42-17.69,1.88c-6.83,1.73-8.75,4.09-8.78,11.02
			c-2.67,0.01-5.35,0.02-8.02,0.03c-1.13-2-1.31-4.02-0.34-6.18c1.71-3.81-1.53-7.45-0.56-11.4c0.17-0.69-2.75-2.13-3.34-3.96
			c-0.35-1.08-0.5-2.23-0.73-3.35C1209.58,1177.93,1218.18,1177.88,1226.77,1177.84z"/>
		<path class="st36" d="M1556.97,1176c-7.82-0.01-15.64,0.03-23.46-0.06c-2.51-0.03-4.22,0.09-4.94,3.31c-0.97,4.3-4.5,6.4-8.74,5.6
			c-5.31-1-8.77,4.14-14.16,3.3c-4.53-0.71-9.39-0.69-14.02,0.25c-0.01,0.52-0.02,1.04-0.03,1.56c5.46,0,10.93-0.06,16.39,0.03
			c2.29,0.04,4.78-0.74,6.84,0.63c3.72,2.47,5.52,5.72,3.16,10.17c-10.35,0.03-20.69,0.06-31.04,0.09c-1.64-4.35,0.02-12,3.17-14.71
			c1.07-0.93,2.38-1.54,3.67-1.21c7.67,1.91,11.86-3.68,16.82-7.62c0.52-0.41,0.9-0.98,1.32-1.5c6.23-1.14,12.52-0.53,18.78-0.61
			c13.39-0.16,26.78-0.06,40.16-0.06C1566.34,1176.91,1561.59,1175.46,1556.97,1176z"/>
		<path class="st37" d="M1457.02,1201.15c-0.63,0.18-1.26,0.5-1.89,0.5c-26.73,0.07-53.47,0.1-80.2,0.14
			c-2.65-1.75-0.67-3.47,0.14-5.05c2.88-5.55,5.25-11.39,8.91-16.52c0.8-1.12,0.85-2.48,1.24-3.73c7.24-0.68,14.49-0.51,21.75-0.18
			c1.79,2.78-0.21,4.68-1.77,6.41c-2.65,2.94-4.51,6.41-6.88,9.5c-1.75,2.28,0.79,2.3,1.16,3.42c0.25,1.4-0.78,2.41-1.41,3.98
			c5.53,0,10.74,0.01,15.96-0.04c0.8-0.04,1.59-0.02,2.39-0.02c2.01-0.09,4.01-0.06,6.02-0.03c4.85-0.15,9.7-0.14,14.54-0.08
			c5.57,0.16,11.15-0.32,16.72,0.13C1455,1199.7,1456.23,1199.96,1457.02,1201.15z"/>
		<path class="st38" d="M1385.22,1176.5c2.47,1.24,1.07,2.53,0.08,3.87c-4.28,5.74-6.4,12.69-10.33,18.62
			c-0.62,0.94-0.57,1.86-0.04,2.8c-5.31,0.01-10.62,0.03-15.94,0.04c4.13-2.47,2.09-8.48,6.3-11c0.69-0.41,0.14-1.27-0.75-1.81
			c-6.1-3.68-6.79-5.63-4.56-12.15C1368.4,1176.8,1376.79,1175.52,1385.22,1176.5z"/>
		<path class="st39" d="M1457.02,1201.15c-1.02-0.12-2.04-0.23-3.06-0.35c-2.93-4.97-1.33-9.36,1.73-13.58
			c3.51-1.15,7.23-0.47,10.82-1.22c6.15-1.29,6.61-1.65,6.98-8.08c0.04-0.67,0.16-1.31,0.49-1.9c4.66-0.02,9.32-0.04,13.98-0.06
			c3.82,4.49,1.71,9.99-4.54,11.82c-6.85,2.01-6.87,2.05-4.49,8.93c0.47,1.36,1.61,2.57,1.02,4.19
			C1472.31,1200.99,1464.67,1201.07,1457.02,1201.15z"/>
		<path class="st40" d="M1324.97,1177.05c0,8.53,1.97,10.92,10.15,11.86c1.76,0.2,2.56,0.84,3.15,2.45c1.45,3.98,4.15,6.28,8.67,5.6
			c3.9-0.58,5.7,1.8,7,4.9c-10.66,0.05-21.31,0.09-31.97,0.14c-0.02-0.16,0.01-0.35-0.06-0.49c-1.83-3.77,0.97-6.98,1.12-10.18
			c0.11-2.41-6.43-0.93-8.63-4.5c-2.17-3.54-1.41-6.59,0.54-9.73C1318.29,1177.07,1321.63,1177.06,1324.97,1177.05z"/>
		<path class="st41" d="M1479.95,1200.91c-3.26-3.05-2.61-7.69-4.54-11.3c-0.81-1.52-0.01-2.54,1.73-2.62
			c1.15-0.06,2.32,0,3.47-0.05c6.8-0.29,9.55-4.41,7.35-10.98c8-0.05,15.99-0.09,23.99-0.14c0.22,2-0.45,3.7-2.22,4.62
			c-2.52,1.31-4.72,2.97-6.83,4.85c-1.65,1.48-3.76,1.91-6.04,1.49c-5.8-1.07-7.34-0.32-8.66,5.33c-0.66,2.83-1.72,5.72-1.24,8.76
			C1484.62,1200.89,1482.28,1200.9,1479.95,1200.91z"/>
		<path class="st42" d="M1437.01,1200.87c-5.02,0.01-10.03,0.02-15.05,0.03c-1.67-2.63,0.24-3.57,2.16-4.4
			c2.02-0.88,4.26-0.7,6.37-1.17c5.77-1.27,7.8-4.75,6.79-10.52c-0.5-2.83-2.78-6.05,0.65-8.68c6.69-0.02,13.38-0.04,20.07-0.05
			c4.12,3.88,3.39,7.56-2.23,11.3c-2.54,1.95-5.52,2.06-8.51,1.89c-2.82-0.16-4.36,0.61-4.12,3.87
			C1443.46,1197.45,1441.04,1199.87,1437.01,1200.87z"/>
		<path class="st43" d="M1415.96,1200.91c-0.67,0-1.33,0.01-2,0.01c-2.85-2.43-4.11-5.78-2-8.74c3.41-4.77,5.18-9.95,6.16-15.57
			c2.91-0.49,5.88,0.29,8.77-0.46c2.69-0.01,5.38-0.01,8.07-0.02c1.63,2.03,1.42,4.27-0.36,5.76
			C1427.75,1187.63,1422.68,1195.07,1415.96,1200.91z"/>
		<path class="st44" d="M1415.96,1200.91c4.09-7.16,10.11-12.69,16.06-18.13c2.28-2.09,3.17-3.87,2.94-6.63
			c0.99-0.01,1.97-0.01,2.96-0.02c-1.46,2.75-0.15,5.54,0.41,8.07c1.67,7.58-1.41,12.05-9.27,12.78c-2.84,0.26-6.6-0.76-7.1,3.91
			C1419.96,1200.9,1417.96,1200.91,1415.96,1200.91z"/>
		<path class="st45" d="M1455.96,1186.95c2.64-3.26,5.27-6.52,2.03-10.87c5.33-0.02,10.66-0.03,15.98-0.05
			c2.37,7.16,0.74,9.67-6.2,11.09c-3.97,0.81-7.87,0.75-11.82,0.84c-0.35-0.22-0.46-0.44-0.35-0.67
			C1455.73,1187.07,1455.84,1186.95,1455.96,1186.95z"/>
		<path class="st46" d="M1398.96,1194.95c-1.31,0.14-2.16,2.8-3.62,1.05c-1.01-1.21,0.85-2.19,1.32-3.32
			c2.51-6.06,8.96-9.6,10.31-16.36c0.99-0.01,1.99-0.01,2.98-0.02c1.14,1.45,0.12,2.71-0.34,4.02c-2.24,3.5-3.98,7.31-6.32,10.76
			C1402.18,1192.71,1401.17,1194.52,1398.96,1194.95z"/>
		<path class="st47" d="M941.59,1087.86c-1.32-10.98-0.27-22-0.54-33c-0.06-2.58-0.67-5.26,0.57-7.77
			C942.26,1060.68,942.3,1074.27,941.59,1087.86z"/>
		<path class="st48" d="M1676.93,1174.87c-1.98,0.05-3.97,0.11-5.95,0.16c-4.29,0.68-8.57,0.63-12.86,0.03
			c-2.06-0.23-4.13-0.46-6.19-0.69c8.34-0.56,16.68-0.49,25.03-0.25c0.31,0.18,0.41,0.35,0.3,0.51
			C1677.15,1174.79,1677.04,1174.87,1676.93,1174.87z"/>
		<path class="st49" d="M1722.91,1174.8c-8,0.06-15.99,0.11-23.99,0.17c-0.32-0.2-0.43-0.39-0.31-0.58
			c0.11-0.18,0.23-0.27,0.34-0.27C1706.94,1174.28,1714.97,1172.97,1722.91,1174.8z"/>
		<path class="st37" d="M1408.95,1179.95c0.33-1.22,0.66-2.44,1-3.66c5.65-0.04,11.3-0.09,16.94-0.13c-2.85,1.63-5.96,0.4-8.92,0.81
			C1415.08,1178.32,1412.08,1179.32,1408.95,1179.95z"/>
		<path class="st50" d="M762.9,1055.89c-1.74-3.88-0.51-7.96-0.81-11.93c0.3-0.44,0.56-0.44,0.79,0.06
			C762.88,1047.98,762.89,1051.94,762.9,1055.89z"/>
		<path class="st51" d="M1676.93,1174.87c0.01-0.25,0.02-0.5,0.02-0.75c3.67,0,7.33,0.01,11,0.01c0.31,0.16,0.42,0.31,0.32,0.47
			c-0.1,0.16-0.21,0.24-0.31,0.24C1684.28,1174.85,1680.61,1174.86,1676.93,1174.87z"/>
		<path class="st52" d="M1687.96,1174.83c-0.01-0.24-0.01-0.47,0-0.71c3.67,0,7.33,0,11-0.01c-0.01,0.28-0.02,0.57-0.03,0.85
			C1695.27,1174.93,1691.61,1174.88,1687.96,1174.83z"/>
		<path class="st53" d="M762.88,1044.02c-0.26-0.02-0.53-0.04-0.79-0.06c0.01-2.68,0.02-5.37,0.03-8.05
			C763.64,1038.5,762.95,1041.29,762.88,1044.02z"/>
		<path class="st54" d="M940.87,1039.94c-1.74-2.63-0.54-5.53-0.78-8.3C941.53,1034.29,940.97,1037.14,940.87,1039.94z"/>
		<path class="st55" d="M940.06,1103.12c0.3-2.7-0.92-5.56,0.83-8.12C940.99,1097.74,941.5,1100.53,940.06,1103.12z"/>
		<path class="st56" d="M761.92,1032.98c-1.75-2.23-0.59-4.8-0.84-7.21C762.45,1028.05,761.99,1030.54,761.92,1032.98z"/>
		<path class="st57" d="M939.89,1027.97c-1.61-1.81-0.6-4-0.86-6.01C940.38,1023.81,940,1025.91,939.89,1027.97z"/>
		<path class="st58" d="M939.1,1112.27c0.13-2.1-0.81-4.34,0.78-6.26C940.03,1108.15,940.43,1110.32,939.1,1112.27z"/>
		<path class="st59" d="M760.95,1020c-1.5-1.46-0.75-3.31-0.89-5.01C761.56,1016.45,761.01,1018.27,760.95,1020z"/>
		<path class="st2" d="M761.07,759.41c-23.62,30.99-47.12,61.83-70.62,92.67c-6.05,7.94-12.18,15.83-18.12,23.87
			c-1.72,2.33-2.88,3.02-5.85,1.43c-125.34-66.98-278.12,3.21-309.13,141.92c-25.68,114.88,49.93,231.3,165.86,253.58
			c74.85,14.38,139.88-6.25,194.26-59.73c3.28-3.23,4.47-3.01,7.24,0.36c29.43,35.75,58.99,71.38,88.67,106.92
			c2.23,2.67,2.08,3.85-0.38,6.12c-52.6,48.74-113.88,80.55-184.7,92.32c-107.87,17.92-205.44-6.89-290.58-75.6
			c-69.03-55.7-112.57-127.96-127.41-215.57c-21.12-124.72,13.61-233.04,102.82-322.68c53.1-53.36,117.93-85.94,192.38-98.09
			c90.16-14.7,174.34,2.11,252.16,50.15C758.79,757.78,759.85,758.57,761.07,759.41z"/>
		<path class="st60" d="M559.1,652.88c6.3-1.38,12.6-1.38,18.9,0C571.7,652.88,565.4,652.88,559.1,652.88z"/>
		<path class="st61" d="M574.08,1236.82c3.58-1.84,7.41-0.46,11.1-0.83C581.59,1237.6,577.81,1236.85,574.08,1236.82z"/>
		<path class="st62" d="M552.65,1236.03c3.45,0.26,7.02-1.02,10.36,0.77C559.54,1236.83,556,1237.64,552.65,1236.03z"/>
		<path class="st63" d="M559,895.14c-2.62,1.75-5.52,0.55-8.29,0.81C553.35,894.36,556.21,895.12,559,895.14z"/>
		<path class="st64" d="M587.35,895.95c-2.73-0.26-5.6,0.88-8.2-0.8C581.91,895.13,584.75,894.33,587.35,895.95z"/>
		<path class="st65" d="M547.99,896.12c-1.54,1.51-3.44,0.72-5.2,0.81C544.36,895.55,546.2,895.99,547.99,896.12z"/>
		<path class="st66" d="M595.24,896.96c-1.73-0.16-3.61,0.68-5.12-0.82C591.88,896.04,593.71,895.55,595.24,896.96z"/>
		<path class="st67" d="M1658.12,1175.06c4.29-0.01,8.57-0.02,12.86-0.03C1666.7,1176.32,1662.41,1176.67,1658.12,1175.06z"/>
		<path class="st68" d="M1618.69,1199.75c-2.57,0-5.14,0-7.71,0c0.01-0.21,0.02-0.43,0.03-0.64
			C1613.58,1199.24,1616.25,1198.12,1618.69,1199.75z"/>
		<path class="st69" d="M1611.01,1199.1c-0.02,0.21-0.03,0.43-0.03,0.64c-2.66,0.03-5.32,0.06-7.98,0.09
			C1605.55,1198.27,1608.32,1199.14,1611.01,1199.1z"/>
		<path class="st70" d="M1408.95,1179.95c2.29-3.15,5.58-3.3,9.02-2.97c1.13,4.74,0.82,9.1-3.13,12.61
			c-3.9,3.46-2.44,7.41-0.88,11.33c-5.98,0-11.97,0-18.07,0c-0.16-2.73,3.39-3.37,3.06-5.98
			C1403.17,1190.53,1404.95,1184.5,1408.95,1179.95z"/>
		<path class="st45" d="M1455.96,1186.95c0,0.33,0,0.66,0,1c-2.14,4.06-2.37,8.41-1.99,12.86c-5.65,0.02-11.31,0.04-16.96,0.06
			c3.75-2.42,6.17-5.51,4.68-10.24c-0.85-2.71,0.78-2.65,2.55-2.68C1448.17,1187.9,1452.14,1188.34,1455.96,1186.95z"/>
	</g>
</g>
</svg>
