<?xml version="1.0" encoding="utf-8"?>
<!-- Generator: Adobe Illustrator 24.2.1, SVG Export Plug-In . SVG Version: 6.00 Build 0)  -->
<svg version="1.1" id="Draw_Layer_xA0_Image_1_" xmlns="http://www.w3.org/2000/svg" xmlns:xlink="http://www.w3.org/1999/xlink"
	 x="0px" y="0px" viewBox="0 0 2100 2100" style="enable-background:new 0 0 2100 2100;" xml:space="preserve">
<style type="text/css">
	.st0{fill:#FFFFFF;}
	.st1{fill:none;}
	.st2{fill:#FDFDFD;}
	.st3{fill:#004AAB;}
	.st4{fill:#FEFEFE;}
	.st5{fill:#2D69BA;}
	.st6{fill:#739BD0;}
	.st7{fill:#99B6DD;}
	.st8{fill:#ABC3E3;}
	.st9{fill:#7BA1D3;}
	.st10{fill:#C4D4EB;}
	.st11{fill:#5887C7;}
	.st12{fill:#80C337;}
	.st13{fill:#81C337;}
	.st14{fill:#3665A4;}
	.st15{fill:#3E5D87;}
	.st16{fill:#376098;}
	.st17{fill:#3464A5;}
	.st18{fill:#21579F;}
	.st19{fill:#36639E;}
	.st20{fill:#3165AD;}
	.st21{fill:#3564A1;}
	.st22{fill:#3364A5;}
	.st23{fill:#35609B;}
	.st24{fill:#3564A4;}
	.st25{fill:#2057A0;}
	.st26{fill:#36619A;}
	.st27{fill:#2E63AA;}
	.st28{fill:#3867A5;}
	.st29{fill:#3566A8;}
	.st30{fill:#345D94;}
	.st31{fill:#054FA6;}
	.st32{fill:#115A98;}
	.st33{fill:#76BA3F;}
	.st34{fill:#155E94;}
	.st35{fill:#196290;}
	.st36{fill:#216B87;}
	.st37{fill:#0953A1;}
	.st38{fill:#6DB146;}
	.st39{fill:#2F7A6C;}
	.st40{fill:#276F7D;}
	.st41{fill:#5EA253;}
	.st42{fill:#1D668C;}
	.st43{fill:#66A94D;}
	.st44{fill:#4F945D;}
	.st45{fill:#428769;}
	.st46{fill:#4A8E63;}
	.st47{fill:#579B59;}
	.st48{fill:#257176;}
	.st49{fill:#8BC150;}
	.st50{fill:#121212;}
	.st51{fill:#D7DDD0;}
	.st52{fill:#879678;}
	.st53{fill:#BEBEBE;}
	.st54{fill:#A2A2A2;}
	.st55{fill:#3B68A5;}
	.st56{fill:#88B556;}
	.st57{fill:#3C5980;}
	.st58{fill:#89B954;}
	.st59{fill:#34619C;}
	.st60{fill:#85AF57;}
	.st61{fill:#88B456;}
	.st62{fill:#365D91;}
	.st63{fill:#89C646;}
	.st64{fill:#88B558;}
	.st65{fill:#88B754;}
	.st66{fill:#2F63A9;}
	.st67{fill:#3265A8;}
	.st68{fill:#3664A4;}
	.st69{fill:#355F97;}
	.st70{fill:#377E6C;}
</style>
<g id="Layer_3">
	<rect x="456.3" y="732.5" class="st0" width="219.6" height="145.5"/>
	<rect x="566.1" y="692.9" class="st0" width="175.9" height="97.9"/>
	<rect x="720.9" y="732.5" class="st0" width="63.5" height="45"/>
	<rect x="628.3" y="755" class="st0" width="113.8" height="70.1"/>
	<rect x="591.2" y="805.3" class="st0" width="119" height="48.9"/>
	<rect x="551.6" y="829.8" class="st0" width="133.6" height="58.9"/>
	<rect x="281.7" y="805.3" class="st0" width="185.2" height="83.3"/>
	<rect x="390.2" y="714" class="st0" width="216.9" height="111.1"/>
	<rect x="437.8" y="679.6" class="st0" width="153.5" height="62.2"/>
	
		<rect x="321.4" y="755" transform="matrix(0.7837 -0.6211 0.6211 0.7837 -416.1752 397.5176)" class="st0" width="82.7" height="82.7"/>
	<rect x="362.7" y="732.5" class="st0" width="93.6" height="57.5"/>
	<rect x="294.9" y="769.6" class="st0" width="77.4" height="77.4"/>
	<rect x="234.1" y="1155.9" class="st0" width="140.2" height="79.4"/>
	<rect x="218.2" y="1185" class="st0" width="191.3" height="116.4"/>
	<rect x="186.5" y="1050" class="st0" width="185.9" height="217"/>
	<rect x="218.2" y="904.5" class="st0" width="156.1" height="291"/>
	<rect x="333.6" y="1158.5" class="st0" width="75.9" height="58.2"/>
	<rect x="186.5" y="965.4" class="st0" width="68.8" height="132.3"/>
	<rect x="199.7" y="917.8" class="st0" width="96.6" height="206.4"/>
	<rect x="234.1" y="847" class="st0" width="70.1" height="142.2"/>
	<rect x="255.2" y="808.3" class="st0" width="134.9" height="170.3"/>
	<rect x="362.7" y="847" class="st0" width="93.6" height="93.6"/>
	<rect x="279.4" y="1243.2" class="st0" width="170.5" height="170.5"/>
	<rect x="374.3" y="1195.5" class="st0" width="82" height="82"/>
	<rect x="415.3" y="1235.2" class="st0" width="269.9" height="201.1"/>
	<rect x="675.9" y="1301.4" class="st0" width="140.2" height="79.4"/>
	<rect x="638.9" y="1301.4" class="st0" width="112.3" height="112.3"/>
	<rect x="650.8" y="1216.7" class="st0" width="95.2" height="124.3"/>
	<rect x="654.1" y="1185" class="st0" width="77" height="77.1"/>
	<rect x="710.3" y="1262" class="st0" width="84.7" height="47.3"/>
	<rect x="752.6" y="1301.4" class="st0" width="76.7" height="27"/>
	<rect x="731.1" y="1223.5" class="st0" width="21.5" height="77.9"/>
	<rect x="675.9" y="1236.6" class="st0" width="92.6" height="49.1"/>
	<rect x="638.9" y="1262" class="st0" width="156.1" height="73.8"/>
	<rect x="685.2" y="741.8" class="st0" width="66" height="66"/>
	<rect x="607.1" y="807.8" class="st0" width="91.3" height="70.3"/>
	<rect x="752.6" y="917.8" class="st0" width="164" height="113.8"/>
	<rect x="752.6" y="1267" class="st0" width="47.9" height="47.9"/>
	<rect x="784.4" y="1014.5" class="st0" width="155.9" height="109.6"/>
	<rect x="776.6" y="1093" class="st0" width="148" height="75.7"/>
	<rect x="829.4" y="1208.6" class="st0" width="66.7" height="14.9"/>
	<rect x="834.7" y="1155.9" class="st0" width="38.6" height="94.1"/>
	<rect x="873.2" y="1147.2" class="st0" width="22.8" height="68.8"/>
	<rect x="795" y="1158.5" class="st0" width="55.6" height="29.1"/>
	<rect x="810.4" y="1173" class="st0" width="40.2" height="40.2"/>
	<rect x="761.9" y="893.8" class="st0" width="122.8" height="30.8"/>
	<rect x="784.4" y="878.1" class="st0" width="88.8" height="26.5"/>
	<rect x="800.5" y="859.2" class="st0" width="62.2" height="29.4"/>
	<rect x="810.4" y="842.9" class="st0" width="40.2" height="40.2"/>
	<rect x="956" y="965.4" class="st0" width="190.5" height="190.5"/>
	<rect x="1154.4" y="1097.7" class="st0" width="125.6" height="71"/>
	<rect x="1305.8" y="965.4" class="st0" width="237" height="193.1"/>
	<rect x="1204.4" y="1060.6" class="st0" width="122.8" height="86.6"/>
	<rect x="1217.3" y="1031.5" class="st0" width="129.9" height="45"/>
	<rect x="1247.2" y="1003" class="st0" width="87.1" height="51"/>
	<rect x="1274.4" y="965.4" class="st0" width="44.2" height="55.6"/>
	<rect x="1529.9" y="989.2" class="st0" width="44.2" height="179.5"/>
	<rect x="1565.6" y="1050" class="st0" width="38.5" height="105.9"/>
	<rect x="1397.1" y="825.2" class="st0" width="72.8" height="133.6"/>
	<rect x="1481.3" y="863" class="st0" width="28.6" height="104.3"/>
	<rect x="1329.3" y="904.5" class="st0" width="49.3" height="49.3"/>
	<rect x="1685.5" y="965.4" class="st0" width="62.8" height="190.5"/>
	<rect x="1739.7" y="1003" class="st0" width="71.4" height="144.2"/>
	<rect x="1801.1" y="1037.3" class="st0" width="67.1" height="111.3"/>
	<rect x="1852.7" y="1061.9" class="st0" width="46.9" height="46.9"/>
	<rect x="1669.8" y="974.6" class="st0" width="15.7" height="181.2"/>
	<rect x="1652.6" y="1014.5" class="st0" width="42.8" height="134.2"/>
	<rect x="1652.6" y="993.2" class="st0" width="64.2" height="67.5"/>
	<rect x="1619.8" y="1054" class="st0" width="75.7" height="94.6"/>
	<rect x="1628.4" y="1031.5" class="st0" width="61.5" height="61.5"/>
</g>
<g>
	<rect x="125" y="373" class="st1" width="1821" height="1124"/>
	<g>
		<g>
			<g>
				<path class="st2" d="M125.1,1098c0-240.1,0-480.3-0.1-720.4c0-3.7,0.8-4.6,4.6-4.6c603.9,0.1,1207.9,0.1,1811.8,0
					c3.7,0,4.6,0.8,4.6,4.6c-0.1,371.6-0.1,743.2,0,1114.8c0,3.7-0.8,4.6-4.6,4.6c-471.1-0.1-942.2-0.1-1413.4-0.1
					c0.5-2.8,2.9-2.2,4.7-2.3c25.5-2.5,50.7-6.5,75.5-13.6c19.9-5.7,39-13.1,57.8-21.6c10.8-4,22-6.5,32.9-10.2
					c48.8-16.6,92.8-41.5,132.3-74.6c10.9-9.1,20.7-19.2,31-29c3-2.9,2.3-5.5-0.1-8.2c-19.2-22.1-37.6-44.9-56.3-67.4
					c-27-32.5-54.1-64.9-80.9-97.6c-3.4-4.2-7.4-7.6-12.8-9.2c-3-2.3-4.8-5.5-7-8.5c-4-5.4-6.8-5.9-12.5-1.8
					c-12.4,8.8-25.4,16.6-39,23.2c-29.4,14.2-60.3,22.6-92.9,25.3c-36.4,3-71.7-1.9-106.3-13.5c-3.6-1.2-7.2-2.6-10.6-4.3
					c-7.2-6.1-12.5-13.8-17.8-21.5c-16.1-23.7-25.6-49.9-28.5-78.4c-4.4-43.6,6.3-83.1,31.5-118.8c1.8-2.6,3.5-5.3,6.2-7.2
					c30.2-22.7,63.9-37.2,101.4-41.8c40.6-4.9,79.8,0.8,116.8,18.7c15.1,7.3,11.1,6.7,21.4-4.6c18-22.7,35.9-45.4,53.4-68.5
					C756,825.1,784,788.7,811.7,752c2.6-3.4,5.3-6.8,6.7-11.1c2-5.5,5.1-10.5,7.7-15.7c3.4-6.8,2.7-9.1-3.7-13.3
					c-25.3-16.6-52.3-29.9-80.7-40.4c-31.1-11.6-63.1-19-96-22.8c-23.5-2.7-47.1-3.2-70.8-1.6c-26.2,1.8-51.9,5.9-77.2,12.5
					c-20.3,4.7-40.6,9.1-60.3,15.9c-48,16.7-91.7,40.9-130.6,73.7c-37,31.2-67.9,67.6-92.1,109.5c-8.1,14-15.3,28.4-21.6,43.3
					c-1,2.3-2,4.6-3.4,6.7c-31.9,48-51.4,100.6-59.3,157.6c-1.3,9.1-1.9,18.2-3,27.3C127.2,1095.4,127.8,1097.7,125.1,1098z"/>
				<path class="st3" d="M125.1,1098c2-4.3,1.5-8.9,1.9-13.4c5.7-63.2,25.7-121.4,60.4-174.6c0.5-0.8,1.3-1.5,1.9-2.2
					c1.4,2,0.4,3.8-0.3,5.7c-8.9,22.3-15.4,45.2-20.3,68.6c-1.2,5.8-1.7,11.8-3.5,17.6c-0.7,1.7-0.8,3.4-0.9,5.2
					c-0.1,0.8-0.2,1.5-0.4,2.2c-0.7,1.9-0.5,3.9-0.7,5.9c0,0.8-0.2,1.5-0.4,2.3c-0.8,2.2-0.5,4.5-0.5,6.8c0,1.1-0.2,2.1-0.4,3.2
					c-0.9,2.9-0.5,5.9-0.5,8.8c0,1.7-0.1,3.4-0.4,5c-0.9,2.8-0.5,5.7-0.6,8.6c0,10.2,0,20.3,0,30.5c0.1,2.9-0.4,5.8,0.5,8.6
					c0.3,1.4,0.4,2.8,0.5,4.2c0,2.9-0.4,5.9,0.5,8.8c0.3,1,0.4,2.1,0.4,3.1c0.1,2.3-0.2,4.6,0.5,6.9c0.2,0.7,0.3,1.5,0.4,2.3
					c0.1,1.8,0.1,3.6,0.8,5.2c0.7,2.8,1.4,5.5,1.4,8.4c0,1.8-0.1,3.5,0.6,5.2c3.8,17.1,7,34.3,12.4,50.9c8.3,25.9,18.3,51,31.5,74.9
					c13.7,24.7,29.5,47.9,47.7,69.4c10,11.8,20.7,22.9,32.1,33.5c16.6,15.5,34.1,29.9,53,42.3c25.9,17.1,53.1,31.7,82.3,42.6
					c26.6,9.9,53.8,17.3,81.9,21.5c1.7,0.6,3.4,0.6,5.1,0.7c0.7,0,1.5,0.2,2.2,0.4c1.9,0.7,3.9,0.5,5.9,0.6c0.8,0,1.5,0.2,2.3,0.4
					c2.2,0.8,4.6,0.5,6.8,0.5c1.1,0,2.1,0.2,3.2,0.4c3,0.9,6,0.5,9,0.5c1.8,0,3.5,0.1,5.3,0.5c7.4,1.2,14.8,0.4,22.3,0.5
					c6.1,0.1,12.2,0.1,18.3-0.1c3.2-0.7,6.3-1,9.6-1c3,0.1,6.1,0.4,9-0.5c1.1-0.3,2.2-0.4,3.3-0.4c2.4,0,4.9,0.2,7.2-0.8
					c9.6-2.3,19.4-3,29-5c5.2-1.1,10.4-2.3,15.6-3.3c2.1-0.4,4.2-1.3,6.1,0.4c-20.3,10.5-41.8,17.9-63.7,23.9
					c-23.8,6.5-48.1,10.5-72.7,12.1c-0.9,0.1-2.1-0.3-2.5,1c-2.3,0-4.7,0-7,0c-1.9-1.1-3.9-0.3-5.9-0.5c-7.5,0-15.1,0-22.6,0
					c-2,0-4.1,0-6.1,0c-1.7,0-3.3,0-5,0c-27.9,0-54.9-5.6-81.6-13.1c-43.4-12.2-83.3-31.9-119.7-58.5c-39.6-28.9-72.2-64.4-98.2-106
					c-21.2-33.9-36.6-70.3-46.5-109c-5.9-23-9.8-46.2-9.9-70c0-0.7,0-1.3-0.5-1.8c0-1,0-2,0-3c1-2.2,0.3-4.5,0.5-6.7
					c0-6.5,0-13.1,0-19.6c-0.3-2.5,0.6-5.2-0.5-7.7C125.1,1100,125.1,1099,125.1,1098z"/>
				<path class="st4" d="M125.1,1138c2.1,3.6,1.4,7.6,1.7,11.5c7.3,81.3,37.3,153.1,90.3,214.9c58.1,67.8,131.6,109.4,219.3,126.2
					c14.7,2.8,29.6,4.4,44.6,5.5c0.4,0.2,0.5,0.3,0.4,0.5c-0.1,0.2-0.2,0.3-0.3,0.3c-117.2,0-234.5,0-351.7,0.1
					c-3.6,0-4.3-0.7-4.3-4.3C125.1,1374.4,125.1,1256.2,125.1,1138z"/>
				<path class="st5" d="M491.9,1496c8.1,0,16.1,0,24.2,0c0.3,0.2,0.4,0.4,0.3,0.6c-0.1,0.2-0.2,0.3-0.3,0.3c-8,0-16,0-24,0
					c-0.3-0.2-0.4-0.4-0.3-0.6C491.8,1496.1,491.9,1496,491.9,1496z"/>
				<path class="st6" d="M125.9,1107.9c0,7,0,14.1,0,21.1c-0.3,0.4-0.6,0.4-0.8-0.1c0-7,0-14,0-21
					C125.4,1107.5,125.6,1107.5,125.9,1107.9z"/>
				<path class="st7" d="M125.9,1107.9c-0.3,0-0.6,0-0.8,0c0-2.3,0-4.7,0-7C127.2,1103.1,125.7,1105.6,125.9,1107.9z"/>
				<path class="st8" d="M125.1,1129c0.3,0.1,0.6,0.1,0.8,0.1c-0.2,2,1.2,4.2-0.8,5.9C125.1,1133,125.1,1131,125.1,1129z"/>
				<path class="st9" d="M491.9,1496c0.1,0.3,0.1,0.6,0.1,0.9c-2,0-4,0-6,0c-0.3-0.2-0.4-0.3-0.3-0.5c0.1-0.2,0.2-0.3,0.3-0.3
					C488,1496,490,1496,491.9,1496z"/>
				<path class="st10" d="M486,1496.1c0.1,0.3,0.1,0.6,0.1,0.8c-1.7,0-3.3,0-5,0c0-0.3,0-0.6-0.1-0.8
					C482.7,1496.1,484.3,1496.1,486,1496.1z"/>
				<path class="st11" d="M516.1,1496.9c0-0.3,0-0.6,0.1-0.9c1.7,0.2,3.6-0.9,4.9,0.9C519.4,1496.9,517.7,1496.9,516.1,1496.9z"/>
				<path d="M732.7,919.7c0.2-3,2.9-4.3,4.5-6.4c35.8-46.8,71.7-93.5,107.6-140.3c0.6-0.8,1.2-1.6,1.9-2.3c4.1-4.9,4.9-5,9.4-0.6
					c47.7,47,81.8,102.4,102.6,166c1,3.2,2.3,4,5.4,4.1c64.5,1.4,128.9,3,193.4,4.2c11.9,0.2,10.1,1.9,10.1,10.7
					c0,38.2,0,76.3,0,114.5c0,1.7-0.5,3.6,0.7,5.8c4.8-5.4,9.4-10.5,14-15.6c34.2-38.5,68.5-76.9,102.6-115.5
					c3.4-3.9,7.3-5.4,12.1-5.4c4,0,8-0.2,12,0.2c3.5,0.3,4.5-0.7,4.5-4.2c-0.1-15.5,0.2-31,0.3-46.5c0.1-6.4,0.9-7.3,7.2-7.3
					c14.8,0,29.7-0.1,44.5,0.1c3.5,0.1,4.4-0.8,4.4-4.3c-0.1-21.2,0.1-42.3,0.2-63.5c0.1-9.1,0.4-9.4,9.7-9.4
					c16.5,0,33-0.2,49.5-0.1c3.3,0,4.4-1,4.4-4.2c-0.1-16.5,0-32.9,0-49.7c-9.5,3.5-18.3,2.1-26.8-2.3c-4.9-2.6-10-2.1-15-0.9
					c-3.2,0.8-5.7,0-5.7-3.5c-0.1-8.6-0.8-17.3,0.3-25.9c0.7-5.4,3.6-7.8,9.1-8.7c4.7-0.7,8.9,0.3,12.9,2.7c1.8,1.1,3.6,2.4,5.4,3.6
					c7.7,5,12.1,4.9,19.5-0.6c3.3-2.4,6.4-6.5,10.9-4.3c4.7,2.4,4,7.5,4,12c0,25.5,0.1,51-0.1,76.5c0,4.3,1.3,5.3,5.3,5.1
					c7.5-0.4,15-0.2,22.5-0.2c6.2,0,8.1,2,8,8c-0.1,9-0.1,18-0.3,27c-0.1,2.9,0.7,3.6,3.6,3.6c10.8-0.2,21.7-0.2,32.5-0.2
					c7,0,9,2,9,8.8c-0.3,27.5-0.5,55-0.9,82.5c-0.1,4,1.1,5.4,4.9,4.7c9.6-1.8,15.3,2.7,20.8,10.4c20.3,28.7,41.2,56.9,61.9,85.3
					c0.4,0.5,0.8,1,1.4,1.9c3.1-4.3,6.1-8.2,9-12.2c22.9-31.5,45.8-63,68.5-94.6c2.5-3.5,4.5-4.2,8.4-2
					c79.2,44,158.4,87.9,237.6,131.8c5.8,3.2,5.7,4.2,0.6,10.2c-12.6,14.9-25.1,29.8-37.7,44.7c-28.9,34.1-57.8,68-86.5,102.2
					c-3.8,4.6-8.1,6.1-13.8,6.2c-86.8,0.5-173.6,1.1-260.5,1.7c-197.3,1.3-394.6,2.6-591.9,3.7c-4.9,0-7.5,1.2-9.6,6
					c-12,27.2-27.5,52.4-45.4,76.1c-6.7,8.8-8,8.9-15,0.2c-34.9-43.1-69.8-86.2-104.6-129.4c-4.6-5.7-9.8-10.9-13.3-17.4
					c-1.2-3-1.5-6.1-0.8-9.3c0.7-3.8,0.4-7.6,0.4-11.5c0-17.3,0.2-34.6-0.1-51.9c-0.2-11.1-1.4-22.3-0.9-33.4
					c0.4-3.9,0.1-7.9,0.2-11.8c-0.1-2.8,0.3-5.6-0.5-8.4c-0.3-1.1-0.4-2.2-0.4-3.3c0-2.4,0.2-4.8-0.6-7.1c-0.4-1.8-0.4-3.7-0.4-5.6
					c0.1-1.8,0.1-3.7-0.6-5.4c-2.7-14.9-6.1-29.6-10.1-44.1c-3.9-14.1-8.1-28.1-13.7-41.6C733.9,926.1,732.1,923.2,732.7,919.7z"/>
				<path d="M161.1,1102.8c-0.1-1-0.1-1.9-0.2-2.9c-1-3,0.4-6.1-0.8-9.1c-0.1-1.3-0.1-2.6-0.2-3.9c-0.7-2.7-0.2-5.5-0.3-8.3
					c0-10.4,0-20.8,0-31.2c0.2-2.8-0.4-5.6,0.4-8.3c0.1-1.6,0.1-3.2,0.2-4.9c1.2-3-0.2-6.1,0.8-9.1c0.1-1,0.1-1.9,0.2-2.9
					c1.1-2.3-0.2-4.8,0.8-7.1c0-0.7,0.1-1.4,0.1-2.1c1.2-1.8-0.1-4.1,0.8-5.9c0.1-0.6,0.1-1.3,0.2-1.9c1-1.6-0.1-3.5,0.8-5.1
					c4-23.4,9.3-46.5,17.1-69c2.7-7.8,5.5-15.5,8.2-23.3c18.3-43.6,42.7-83.3,74.5-118.4c60.5-66.8,134.8-109.6,222.9-128.3
					c3.4-0.7,6.8-1.4,10.2-2.1c12-2.4,24-5,36.3-5.8c8.6-0.6,17.2-1.3,25.9-1.6c6,0.2,12,0,18,0.1c51.9,1.5,102,11.8,149.9,31.9
					c31.6,13.3,61.2,30.1,88.6,50.7c2.5,1.9,4.7,3.8,3.9,7.3c-1.1,3.5-3.1,6.5-5.4,9.4c-38.5,50.5-76.9,101-115.4,151.4
					c-7.2,9.4-14.8,18.3-22.2,27.5c-3.1,2.1-5.4,0-7.6-1.6c-9.3-6.7-19.4-11.9-29.8-16.9c-12.4-5.9-25.5-9.3-38.7-12.1
					c-1.8-0.4-3.6-0.6-5.3-1.3c-1.6-0.8-3.4-0.7-5.2-0.8c-1.1,0-2.1-0.2-3.2-0.4c-2.7-0.8-5.5-0.5-8.3-0.4c-6.2,0-12.4,0.1-18.6,0
					c-2.8-0.1-5.5-0.4-8.3,0.3c-1,0.3-2.1,0.4-3.2,0.4c-1.8,0-3.5,0-5.2,0.6c-29.3,5.1-56.2,15.9-79.5,34.6
					c-7.5,6-14.9,12.3-21,19.8c-2,2.5-4.8,4.1-6.8,6.5c-18.9,22.8-30.9,49-35.4,78.1c-8.7,55.5,6,104.4,43.9,146.1
					c6.9,5,12.8,11,19.4,16.3c24.2,19.4,51.9,30.5,82.4,35.2c2.5,0.4,5,0,7.4,0.6c3.2,0.8,6.5,0.4,9.8,0.3c3.4,0,6.9,0,10.3,0
					c3.6,0.1,7.1,0.4,10.7-0.3c20.8-1.8,40.6-7.3,59.3-16.4c23.4-11.5,42.8-27.9,59.1-48.1c1.7-2.1,3.3-4.2,5-6.2
					c1.3-1.6,2.9-2.8,5.2-1.7c6.4,0.5,9.8,5.2,13.4,9.5c19.4,23.3,38.7,46.6,58.1,69.9c24.3,29.2,48.6,58.3,72.9,87.5
					c2.3,2.8,4.7,5.6,7.1,8.3c2.3,2.7,2.6,5-0.1,7.8c-28.8,29.4-60.9,54.5-97,74.6c-29.5,16.4-60.5,28.9-93,37.6
					c-2.4,0.6-4.8,1.3-7.2,2c-9.2,1.8-18.4,3.6-27.6,5.3c-7.8,1.4-15.6,2.6-23.4,3.8c-2.3,1-4.8-0.3-7,0.8c-1,0.1-2,0.1-3,0.2
					c-3,1-6.2-0.4-9.2,0.8c-3-0.2-5.9,0.1-8.7,1c-9.2-1-18.5-0.1-27.7-0.5c-4.8-0.2-9.6,0.4-14.3-0.3c-1.6-0.1-3.2-0.1-4.8-0.2
					c-3-1.2-6.2,0.2-9.2-0.8c-1-0.1-2-0.1-3-0.2c-2.2-1.2-4.8,0.1-7-0.8c-0.7-0.1-1.4-0.1-2.1-0.2c-1.9-1.2-4.1,0.1-6-0.9
					c-0.7,0-1.3-0.1-2-0.1c-1.5-1.1-3.4,0-5-0.8c-15.2-2.1-30.2-5-45-9.4c-8.7-2.6-17.7-4.7-26.2-7.8c-13.3-4.8-26.5-10-39.3-16
					c-13.6-6.3-26.5-13.7-39.5-21.1c-14.2-8.1-27.4-17.8-40.3-27.9c-8.3-6.6-16.7-13.2-24.6-20.4c-6.8-6.1-12.9-12.9-19.3-19.4
					c-13.3-13.3-24.9-28.1-36.2-43.1c-10.8-14.4-19.8-30.1-28.6-45.8c-18.2-32.4-30-67.1-38.9-102.9c-1.8-7.3-2.9-14.9-4.4-22.3
					c-0.9-1.5,0.3-3.4-0.9-4.9c0.5-3.1-0.8-6-1.1-9c-0.9-1.6,0.2-3.6-0.8-5.2c-0.1-0.6-0.1-1.3-0.2-1.9
					C161,1107.6,162.3,1105,161.1,1102.8z"/>
				<path class="st12" d="M712.9,1162.7c-2.3,0.3-3.8,1.6-5.2,3.4c-26,35.1-60.2,57.8-102.9,67.2c-6.4,1.4-12.9,2.9-19.6,2.6
					c-3.6,1.2-7.5-0.3-11.1,0.8c-3.7,0-7.4,0-11.1,0c-3.4-1-7,0.3-10.4-0.8c-30-2.1-56.9-12.7-81.4-29.5
					c-9.8-6.8-19.1-14.3-26.9-23.5c21.3,7.8,43,13.6,65.6,16.2c38.6,4.4,76.3,0.4,113.2-12c25.1-8.5,48.3-20.6,69.7-36.1
					c5.9-4.2,9.2-3.6,13.3,2.3C708.3,1156.6,710.6,1159.6,712.9,1162.7z"/>
				<path class="st13" d="M819.5,741.6c-0.1-3.3-2.8-4.7-5-6.4c-43.4-32.4-91.3-55.4-143.6-69.2c-30.5-8-61.5-11.5-92.9-13.1
					c-6.3-0.6-12.6-0.6-18.9,0c-19.8,1.3-39.7,2.3-59.2,6.1c-1,0.2-2,0-3,0c14.9-4.9,30.3-7.4,45.7-9.8c23.2-3.5,46.7-4.9,70.2-4.1
					c76.8,2.7,147.4,24.8,211.9,66.7c7.1,4.6,6,7.9,1.7,16.2C824.1,732.4,821.3,736.8,819.5,741.6z"/>
				<path class="st3" d="M762.9,1055.9c0.7,35.6,2.2,71.1-0.1,106.7c-5-5.5-7.2-11.7-7.1-19.4c0.7-63.5-12.7-124-39.6-181.4
					c-1.9-4-3.2-8.3-5.7-12.1c-2.4-3.8-0.9-7.5,2.1-10.3c5.3-5,10.8-9.8,16.3-14.7c1.6-1.4,3-3.1,3.9-5
					c6.5,12.9,10.1,26.8,14.9,40.2c3.3,9.1,4.3,18.9,7.4,28.1c3,8.7,3.2,18,5.1,27c1.1,1.5-0.2,3.5,0.9,5c0,1.9,0.1,3.9,0.1,5.8
					c1.1,2.3-0.2,4.9,0.8,7.2c0.1,1,0.1,2,0.2,2.9c0.9,2.6,0.2,5.3,0.4,7.9C762.7,1047.8,762,1051.9,762.9,1055.9z"/>
				<path class="st3" d="M559,895.1c6.7-0.5,13.4-0.7,20.2,0c2.7,1,5.5-0.3,8.2,0.8c0.9,0.1,1.8,0.1,2.8,0.2
					c1.6,0.9,3.5-0.2,5.1,0.8c8.9,2,17.9,3.6,26.6,6.2c5.5,1.6,10.7,4.3,16.1,6.6c11.9,5.1,23.1,11.1,33.4,18.9
					c1.6,1.2,3.3,1.5,5.2,1.3c-2.7,3.4-5.4,6.7-8.1,10.1c-2.4,3.1-4.9,1.1-7.1-0.1c-12.7-6.7-25.9-12.2-39.7-15.9
					c-65.4-17.6-125.8-7-181.3,31.8c-1.5,1-3,2-4.6,3c7.6-11,17.5-19.9,27.9-28.1c18.3-14.4,38.7-24.6,61.3-30.2
					c5.8-1.5,11.6-3.7,17.8-3.6c1.6-0.9,3.6,0.1,5.2-0.8c0.9-0.1,1.8-0.1,2.7-0.2C553.4,894.9,556.3,896.2,559,895.1z"/>
				<path class="st14" d="M546.1,1471c13.1,0,26.3-0.1,39.4-0.1c1,0,2-0.2,2.6,0.9c-12.8,0-25.5,0.1-38.3,0.1
					C548.6,1471.9,547.2,1472.2,546.1,1471z"/>
				<path class="st15" d="M159.9,1046.9c0,10.7,0,21.4,0,32.1c-0.3,0.4-0.6,0.4-0.8-0.1c0-10.7,0-21.3,0-32
					C159.4,1046.6,159.6,1046.5,159.9,1046.9z"/>
				<path class="st16" d="M161,1025.1c0,3.1,0.8,6.2-0.8,9.1C160.4,1031.1,159.2,1028,161,1025.1z"/>
				<path class="st17" d="M532.1,1470c3.1-0.1,6.2-0.7,9.2,0.8C538.3,1470.5,535.1,1471.8,532.1,1470z"/>
				<path class="st18" d="M596.8,1470.9c3-1.4,6.1-0.9,9.2-0.8C603.1,1471.8,599.9,1470.6,596.8,1470.9z"/>
				<path class="st19" d="M160.1,1090.8c1.5,2.9,0.9,6,0.8,9.1C159.2,1097,160.5,1093.8,160.1,1090.8z"/>
				<path class="st20" d="M159.1,1079c0.3,0,0.5,0,0.8,0.1c0,2.6,0,5.2,0,7.9C158.3,1084.4,159.4,1081.6,159.1,1079z"/>
				<path class="st21" d="M159.9,1046.9c-0.3,0-0.5,0-0.8,0c0.3-2.7-0.9-5.5,0.8-8C160,1041.7,160,1044.3,159.9,1046.9z"/>
				<path class="st22" d="M161.1,1102.8c1.5,2.2,0.9,4.7,0.8,7.1C160.3,1107.6,161.4,1105.1,161.1,1102.8z"/>
				<path class="st23" d="M162,1015.1c0.1,2.4,0.7,4.9-0.8,7.1C161.4,1019.8,160.3,1017.3,162,1015.1z"/>
				<path class="st24" d="M522.1,1469c2.4-0.1,4.8-0.7,7,0.8C526.8,1469.6,524.3,1470.7,522.1,1469z"/>
				<path class="st25" d="M609,1469.9c2.2-1.4,4.6-0.9,7-0.8C613.8,1470.7,611.3,1469.6,609,1469.9z"/>
				<path class="st17" d="M163,1007.1c0.1,2,0.6,4.1-0.8,5.9C162.4,1011,161.3,1008.9,163,1007.1z"/>
				<path class="st26" d="M514.1,1468c2-0.1,4.1-0.6,6,0.9C518.1,1468.7,515.9,1469.6,514.1,1468z"/>
				<path class="st27" d="M164.1,1126c1.4,1.4,1,3.2,0.9,4.9C163.5,1129.5,164.3,1127.6,164.1,1126z"/>
				<path class="st28" d="M162.1,1111.8c1.3,1.6,0.9,3.4,0.8,5.2C161.4,1115.4,162.3,1113.5,162.1,1111.8z"/>
				<path class="st29" d="M507.1,1467c1.7-0.1,3.5-0.5,5,0.8C510.4,1467.7,508.6,1468.5,507.1,1467z"/>
				<path class="st30" d="M164,1000.1c0.1,1.8,0.6,3.6-0.8,5.1C163.3,1003.5,162.5,1001.6,164,1000.1z"/>
				<path class="st4" d="M858.5,1242.3c-19.4-24.1-38.8-48.2-58.3-72.3c-1.8-2.2-2.4-4.3-2.4-7.2c0.1-41.1,1.4-82.3-1.1-123.4
					c-0.8-13.9-1.5-27.9-3.5-41.7c-1.2-8.7-3.3-17.3-6-25.7c-5-16-9.7-32.1-18.2-46.7c-1-1.7-0.9-2.9,0.3-4.4
					c19.2-24.6,38.4-49.3,57.6-74c2.4,0.5,3.4,2.6,4.5,4.4c17.8,26.3,32.2,54.4,43.3,84.1c11.3,30.4,18.8,61.8,22.3,94
					c1.9,17.9,3,35.8,2.3,53.8c-2.1,54-13.8,105.8-36.8,154.8C861.7,1239.8,861.5,1242.4,858.5,1242.3z"/>
				<path class="st4" d="M1596.7,1086.9c0.1,18.3,0.1,36.6,0.3,54.9c0,3.5-1.9,3.1-4.1,3.1c-40.1,0-80.3,0-120.4,0
					c-26,0-52-0.1-78,0.1c-3.7,0-4.7-0.9-4.6-4.6c0.2-17.3,0.2-34.6,0-52c-0.1-3.9,1.1-4.6,4.7-4.6c22.5,0.2,45-0.1,67.5,0.2
					c4.3,0,5.2-1.2,5.2-5.2c-0.1-10.5,0.1-21,0.3-31.4c0.1-3.7-1.6-4.7-5.2-4.6c-21.8,0.5-43.6,0.6-65.4,1.3
					c-5.4,0.2-6.3-1.5-6.2-6.4c0.5-20.8,0.6-41.6,0.6-62.5c0-3.7,0.9-4.7,4.7-4.6c15.2,0.3,30.3,0.2,45.5,0.2
					c21.8-0.6,43.6-0.1,65.4-0.3c3.4,0,4.9,2.5,6.5,4.7c20,27,40.2,53.9,60.4,80.8c6.9,9.2,13.5,18.6,20.9,27.4
					C1595.6,1084.5,1596.2,1085.7,1596.7,1086.9z"/>
				<path class="st4" d="M1884.2,1088c-15.3,18.2-30.7,36.3-46,54.6c-1.3,1.6-2.5,1.3-3.9,1.3c-66.3,0-132.6,0-198.9,0
					c-2.8,0-3.6-0.7-3.6-3.5c0.2-24.2,0.2-48.3,0.2-72.5c0-1.9,0.4-3.5,1.6-5.1c19.3-26.3,38.5-52.7,57.7-79c2-1,3.6,0.2,5.1,1
					c21.8,11.9,43.7,23.5,65.5,35.3c19.9,10.8,39.9,21.5,59.8,32.3c19.6,10.6,39.3,21.1,58.8,31.9
					C1882,1085.2,1884.1,1085.6,1884.2,1088z"/>
				<path class="st4" d="M1130.3,1063.4c0,26.5-0.1,53,0.1,79.4c0,4-1.1,4.9-5,4.9c-50.5,0.1-100.9,0.3-151.4,0.7
					c-4.4,0-4.4-1.5-3.7-4.9c11.1-54.4,11-108.7-0.1-163.1c-0.7-3.4-0.8-5,3.9-4.9c50.3,1.3,100.5,2.4,150.8,3.3
					c4.3,0.1,5.5,1,5.5,5.5C1130.1,1010.8,1130.3,1037.1,1130.3,1063.4z"/>
				<path class="st12" d="M858.5,1242.3c4.4-6,6.7-12.9,9.4-19.7c17-41.8,27.2-85.1,29.4-130.3c4.3-89.8-19.7-171.4-70.4-245.4
					c4.6-8.1,11.3-14.7,16.6-22.3c2.1-3,6.3-2.1,9.3,1.3c14.5,16.8,27.2,34.8,38.4,53.9c22.8,38.7,37.8,80.3,45.6,124.5
					c1,5.8,2.5,11.7,2.2,17.7c1.2,1.9-0.2,4.1,0.9,6c0.1,1.2,0.1,2.4,0.2,3.7c1,2.7-0.2,5.6,0.8,8.3c0.3,2.4,0.5,4.8,0.8,7.1
					c-0.2,13.6-0.2,27.2,0,40.8c-0.2,2.4-0.5,4.8-0.7,7.1c-1.1,2.6,0.3,5.5-0.8,8.1c-0.1,1-0.1,1.9-0.2,2.9c-1,2,0.2,4.3-0.8,6.3
					c-1.6,20.7-6.3,40.8-12.1,60.6c-8.3,28.4-19.5,55.5-34.9,80.9c-1.6,2.5-3.3,5-5,7.4c-3.2,4.7-4.8,5.1-9.5,1.3
					C870.2,1256.7,863.7,1250,858.5,1242.3z"/>
				<path class="st4" d="M1209.7,1083.9c33-37.1,65.5-73.6,98.1-110.2c1.5-1.7,2.9-2.8,5.4-2.7c10.7,0.2,21.3,0.2,32,0
					c2.7,0,3.7,0.6,3.7,3.5c-0.6,56-1.1,111.9-1.6,167.9c0,2.9-0.9,3.6-3.7,3.5c-7.2-0.2-14.3,0-21.5,0c-1.1,0-2.2,0.5-3.2-0.7
					c-12.2-14.9-28.7-23.8-45-33.1c-10.1-5.7-20.3-11.2-31.3-15.1C1231.6,1093,1221,1088.4,1209.7,1083.9z"/>
				<path class="st12" d="M1722.9,1174.8c29.3-2.1,58.6-0.1,88-1.8c0.4,2.6-1.5,3.5-2.6,4.8c-5.1,6.1-10.4,12.1-15.5,18.3
					c-1.7,2.1-3.5,3.1-6.3,3.1c-75.1,0.9-150.1,0.8-225.2,0.8c-0.8,0-1.7-0.1-2.5-0.2c-4.9-3.8-10.6-5-16.7-5.6
					c-2.6-0.2-5.9-0.3-5.7-4c0.2-3.2,2.2-5.5,5.8-5.6c0.5,0,1-0.1,1.5-0.1c7.1,0.8,12.3-1,13.4-9.1c4.5-0.3,9.1,0.3,13.6-0.4
					c25.3-0.1,50.7-0.3,76-0.4c6.9-0.6,13.9-0.1,20.9-0.3c4.7,0,9.4,0,14.2,0c5.4,0,10.7,0,16.1,0
					C1706.3,1174.7,1714.6,1174.1,1722.9,1174.8z"/>
				<path class="st3" d="M1103.1,1203.7c-4.5,0.1-9,0.2-13.5,0.2c-43.5,0.3-87,0.7-130.5,1c-1.8,0-3.6,0-5.9,0
					c2.7-8.2,5.3-16.1,7.9-23.9c0.9-2.8,3.2-2,5-2c19.3-0.1,38.7,0,58-0.1c45.7-0.3,91.3-0.6,137-0.9c1.7,0,3.3,0.1,5,0.2
					c2.9,3,6.3,4.5,10.6,4.5c5.4,0.1,6.1,1.9,4.9,7c-1.4,5.7-5,7.5-10.2,9.3c-16.8,5.7-34.1,4.4-51.3,4.5
					C1114.3,1203.5,1108.7,1203,1103.1,1203.7z"/>
				<path class="st4" d="M1407.1,884c0-16.5,0.1-32.9-0.1-49.4c0-3.4,0.7-4.6,4.3-4.5c13.6,0.3,27.3,0.3,40.9,0.2
					c3.3,0,4.2,0.9,4.1,4.2c-0.4,33.1-0.6,66.2-0.8,99.3c0,3.7-0.7,5.1-4.9,4.9c-12.6-0.5-25.3-0.5-37.9-0.3
					c-4.3,0.1-5.9-0.7-5.8-5.5C1407.3,916.6,1407.1,900.3,1407.1,884z"/>
				<path class="st12" d="M1884.2,1088c-14.6-8-29.1-16-43.7-23.9c-48.4-26.1-96.8-52.2-145.2-78.3c-1.3-0.7-2.7-1.3-4-1.9
					c3.1-4.3,6.4-8.5,9.2-13c1.8-2.7,3.2-2.8,5.9-1.2c33.5,18.8,67.1,37.5,100.7,56.2c28.1,15.6,56.1,31.2,84.3,46.6
					c3.7,2,4,3.5,1.1,6.3C1889.6,1081.6,1887,1084.9,1884.2,1088z"/>
				<path class="st12" d="M1596.7,1086.9c-2.5-1.2-4-3.5-5.5-5.6c-26.6-35.6-53.3-71.1-79.8-106.8c-2-2.7-4-3.8-7.4-3.8
					c-20.8,0.1-41.6,0-62.4,0c1.5-0.1,2.9-0.4,4.4-0.4c27.7-0.1,55.3-0.1,83-0.2c2.7,0,4.6,0.5,6.3,2.9
					c19.7,27.3,39.5,54.4,59.4,81.6c1.7,2.3,2.5,4.5,2.4,7.3C1596.8,1070.3,1596.8,1078.6,1596.7,1086.9z"/>
				<path class="st4" d="M1252.7,1146.7c-4.9,0-9.8,0-14.7,0c-22,0.1-43.9,0.1-65.9,0.4c-3.8,0.1-4.8-0.9-4.6-4.6
					c0.3-7.1,0.3-14.3,0-21.4c-0.1-3.4,1.1-4.2,4.3-4.2c15.2,0.2,29.4,5,43.3,10.3c10.4,3.9,20.4,8.6,30.6,13.1
					C1248.5,1141.4,1250.8,1143.2,1252.7,1146.7z"/>
				<path class="st4" d="M1483,905.7c0-9.3,0.1-18.7-0.1-28c-0.1-3.2,0.9-4,3.9-3.8c3.5,0.3,7,0.4,10.5,0c3.4-0.3,3.7,1.1,3.7,4
					c-0.1,18.7-0.2,37.3-0.1,56c0,3.2-0.8,4.5-4.1,4.1c-4.4-0.4-10.2,1.8-13-0.9c-2.8-2.7-0.7-8.5-0.8-13
					C1482.9,918.1,1483,911.9,1483,905.7z"/>
				<path class="st31" d="M1103.1,1203.7c1.4-1.3,3.2-0.8,4.8-0.8c10.3,0,20.6-0.6,30.9,0.1c9.5,0.6,18.2-2,27.1-4.6
					c1.6-0.5,3.2-1.4,4.8-1.2c7.8,0.8,8.5-5.6,10.6-10.4c0.7-1.6-0.6-2.8-2.4-2.9c-1.7-0.1-3.3-0.1-5,0c-4.2,0.1-7.1-1.4-7.9-5.8
					c11.7,0,23.3-0.1,35-0.1c7.1,7.2,6.9,15.9,5,24.9C1171.7,1203.1,1137.4,1204.3,1103.1,1203.7z"/>
				<path class="st32" d="M1255.1,1202.7c-13.7,0.1-27.4,0.1-41.1,0.2c-2.1-5.2,0.1-9.5,6.3-11.7c4.9-1.7,10-2.4,15.2-2.6
					c5.2-0.1,7.4-3.1,6.2-8.1c-0.4-1.7-1.8-1-2.8-1.2c-4-0.6-8.3,1.3-12.1-1.5c6.5-1.2,13-0.7,19.5-0.4c3.7,0,7.3,0.1,11,0
					c3.3-0.2,4,1.5,3.5,4.3c-1.3,7.9-0.9,8.6,6.6,12c3.5,1.6,5.3,4.7,7,8.3C1267.6,1202.9,1261.3,1202,1255.1,1202.7z"/>
				<path class="st2" d="M1369.6,924.5c-0.2,4.6,1.3,10.9-1.1,13.4c-2.3,2.4-8.7,0.9-13.3,0.8c-4.3-0.1-9.9,1.9-12.5-0.7
					c-2.6-2.6-0.6-8.2-0.7-12.5c-0.1-4,0.1-8,0-12c-0.1-2.4,0.4-3.5,3.2-3.4c7.1,0.2,14.3,0.2,21.4,0c2.8-0.1,3.3,1,3.2,3.5
					c-0.2,3.6-0.1,7.3-0.1,11C1369.7,924.5,1369.6,924.5,1369.6,924.5z"/>
				<path class="st33" d="M1557,1176c1.7,5.2-0.8,9.4-6.1,9.9c-2.6,0.3-5.3,0.4-7.9,0c-3.8-0.6-5.1,2.4-5.3,4.6
					c-0.3,2.8,2.9,2.1,4.9,2.6c5.9,1.2,12.9-0.2,16.4,6.8c-13.7-0.1-27.3,1.9-40.9,1c-2.1-8.9-2.6-9.3-12.1-9.3
					c-3.5,0-7,0.1-10.5-0.1c-1.9-0.1-4.6,0.1-4.6-2.5c0-2.3,2.6-2,4.4-2.2c0.7-0.1,1.3-0.1,2,0c8.7,1.4,16.6-2.8,24.9-3.6
					c2.5-0.2,4-2.3,5-4.4c0.7-1.5,1.4-3.2,3.5-3.1C1539.4,1175.8,1548.2,1174.8,1557,1176z"/>
				<path class="st34" d="M1255.1,1202.7c5.9-1.7,11.9-0.1,17.8-0.9c-2.4-3.6-5.1-6.4-9.5-8.1c-5.5-2.2-6.4-6.1-4.1-11.7
					c1.2-2.9,0.2-3.9-2.8-4c-3.5-0.1-7,0.6-10.4-0.5c14.9-0.7,29.8-0.5,44.8-0.3c0.8,0.9,0.5,1.9,0.2,2.8c-1.3,3.3-0.7,6.1,1.8,8.7
					c3,3.1,2.3,7.1,2.7,10.8c0.2,1.8-1.5,1.9-2.6,2.5C1280.4,1203.4,1267.7,1202.8,1255.1,1202.7z"/>
				<path class="st35" d="M1293,1201.9c2.6-4,2.1-8.8-0.5-11.5c-4.3-4.5-4.1-8.5-1.5-13.2c8,0,16-0.1,24-0.1c0.5,1,0.1,1.9,0,2.9
					c-0.9,5.3,0.2,7.3,5.6,8.5c3.6,0.8,5.2,2.1,2.8,5.6c-1.6,2.4-0.3,5.2-1.3,7.7C1312.3,1201.9,1302.6,1201.9,1293,1201.9z"/>
				<path class="st36" d="M1325,1177c11.7-0.1,23.3-0.1,35-0.2c0.8,1.4,0.3,2.9,0.3,4.3c0,2.6,0.8,5,3.4,6.1
					c3.5,1.6,3.3,3.6,1.1,6.1c-2.2,2.6-1,7.6-5.8,8.3c-1.7,0-3.4,0-5.1,0c-2.8-2.1-5.7-3.9-9.5-3.7c-2.3,0.1-4.3-1.1-5.4-3.1
					c-1.8-3.1-4.3-4.5-7.8-5.4C1324.9,1187.9,1322.6,1182.7,1325,1177z"/>
				<path class="st37" d="M1226.8,1177.8c5.8,0,11.5,0,18,0c-2.1,3.3-3.4,6-1.7,9.3c1.6,3-0.9,2.9-2.7,2.8c-6-0.2-11.9,0.4-17.7,1.9
					c-6.8,1.7-8.7,4.1-8.8,11c-2.7,0-5.3,0-8,0c-1.1-2-1.3-4-0.3-6.2c1.7-3.8-1.5-7.5-0.6-11.4c0.2-0.7-2.7-2.1-3.3-4
					c-0.4-1.1-0.5-2.2-0.7-3.4C1209.6,1177.9,1218.2,1177.9,1226.8,1177.8z"/>
				<path class="st38" d="M1557,1176c-7.8,0-15.6,0-23.5-0.1c-2.5,0-4.2,0.1-4.9,3.3c-1,4.3-4.5,6.4-8.7,5.6
					c-5.3-1-8.8,4.2-14.2,3.3c-4.5-0.8-9.4-0.2-14-0.2c0,0.7,0,1.3,0,2c5.5,0,10.9-0.1,16.4,0c2.3,0,4.8-0.7,6.8,0.6
					c3.7,2.5,5.5,5.7,3.2,10.2c-10.3,0-20.7,0.1-31,0.1c-1.6-4.3,0-12,3.2-14.7c1.1-0.9,2.4-1.5,3.7-1.2c7.7,1.9,11.9-3.7,16.8-7.6
					c0.5-0.4,0.9-1,1.3-1.5c6.2-1.1,12.5-0.5,18.8-0.6c13.4-0.2,26.8-0.1,40.2-0.1C1566.3,1176.9,1561.6,1175.5,1557,1176z"/>
				<path class="st39" d="M1457,1201.2c-0.6,0.2-1.3,0.5-1.9,0.5c-26.7,0.1-53.5,0.1-80.2,0.1c-2.6-1.7-0.7-3.5,0.1-5
					c2.9-5.6,5.2-11.4,8.9-16.5c0.8-1.1,0.9-2.5,1.2-3.7c7.2-0.7,14.5-0.5,21.7-0.2c1.8,2.8-0.2,4.7-1.8,6.4
					c-2.6,2.9-4.5,6.4-6.9,9.5c-1.7,2.3,0.8,2.3,1.2,3.4c0.2,1.4-0.8,2.4-1.4,4c5.5,0,10.7,0,16,0c0.8,0,1.6,0,2.4,0
					c2-0.1,4-0.1,6,0c4.8-0.2,9.7-0.1,14.5-0.1c5.6,0.2,11.1-0.3,16.7,0.1C1455,1199.7,1456.2,1200,1457,1201.2z"/>
				<path class="st40" d="M1385.2,1176.5c2.5,1.2,1.1,2.5,0.1,3.9c-4.3,5.7-6.4,12.7-10.3,18.6c-0.6,0.9-0.6,1.9,0,2.8
					c-5.3,0-10.6,0-15.9,0c4.1-2.6,2.3-8.5,6.4-11.2c0.8-0.5-0.3-1.2-1.1-1.6c-5.6-3-6.5-5.6-4.3-12.1
					C1368.4,1176.8,1376.8,1175.5,1385.2,1176.5z"/>
				<path class="st41" d="M1457,1201.2c-1-0.1-2-0.2-3.1-0.3c-2.9-5-1.3-9.4,1.7-13.6c3.5-1.2,7.2-0.5,10.8-1.2
					c6.2-1.3,6.6-1.6,7-8.1c0-0.7,0.2-1.3,0.5-1.9c4.7,0,9.3,0,14-0.1c3.8,4.5,1.7,10-4.5,11.8c-6.9,2-6.9,2-4.5,8.9
					c0.5,1.4,1.6,2.6,1,4.2C1472.3,1201,1464.7,1201.1,1457,1201.2z"/>
				<path class="st42" d="M1325,1177c0,8.5,2,10.9,10.1,11.9c1.8,0.2,2.6,0.8,3.2,2.4c1.5,4,4.1,6.3,8.7,5.6c3.9-0.6,5.7,1.8,7,4.9
					c-10.7,0-21.3,0-32,0c-1.3-3.2-1.9-6.3,0.8-9.1c1.5-1.6,1.1-2.3-1.1-2.8c-8.8-1.7-10.5-5-6.6-12.8
					C1318.3,1177.1,1321.6,1177.1,1325,1177z"/>
				<path class="st43" d="M1479.9,1200.9c-3.3-3.1-2.6-7.7-4.5-11.3c-0.8-1.5,0-2.5,1.7-2.6c1.2-0.1,2.3,0,3.5,0
					c6.8-0.3,9.6-4.4,7.3-11c8,0,16-0.1,24-0.1c0.2,2-0.5,3.7-2.2,4.6c-2.5,1.3-4.7,3-6.8,4.9c-1.7,1.5-3.8,1.9-6,1.5
					c-5.8-1.1-7.3-0.3-8.7,5.3c-0.7,2.8-1.7,5.7-1.2,8.8C1484.6,1200.9,1482.3,1200.9,1479.9,1200.9z"/>
				<path class="st44" d="M1437,1200.9c-5,0-10,0-15,0c-1.7-2.6,0.2-3.6,2.2-4.4c2-0.9,4.3-0.7,6.4-1.2c5.8-1.3,7.8-4.8,6.8-10.5
					c-0.5-2.8-2.8-6.1,0.6-8.7c6.7,0,13.4,0,20.1-0.1c4.1,3.9,3.4,7.6-2.2,11.3c-2.5,1.9-5.5,2.1-8.5,1.9c-2.8-0.2-4.4,0.6-4.1,3.9
					C1443.5,1197.4,1441,1199.9,1437,1200.9z"/>
				<path class="st45" d="M1416,1200.9c-0.7,0-1.3,0-2,0c-2.9-2.4-4.1-5.8-2-8.7c3.4-4.8,5.2-10,6.2-15.6c2.9-0.5,5.9,0.3,8.8-0.5
					c2.7,0,5.4,0,8.1,0c1.6,2,1.4,4.3-0.4,5.8C1427.7,1187.6,1422.7,1195.1,1416,1200.9z"/>
				<path class="st46" d="M1416,1200.9c4.1-7.2,10.1-12.7,16.1-18.1c2.3-2.1,3.2-3.9,2.9-6.6c1,0,2,0,3,0c-1.5,2.8-0.1,5.5,0.4,8.1
					c1.7,7.6-1.4,12.1-9.3,12.8c-2.8,0.3-6.6-0.8-7.1,3.9C1420,1200.9,1418,1200.9,1416,1200.9z"/>
				<path class="st47" d="M1456,1187c2.6-3.3,5.3-6.5,2-10.9c5.3,0,10.7,0,16-0.1c2.4,7.2,0.7,9.7-6.2,11.1c-4,0.8-7.9,0.7-11.8,0.8
					c-0.3-0.2-0.5-0.4-0.3-0.7C1455.7,1187.1,1455.8,1187,1456,1187z"/>
				<path class="st48" d="M1399,1194.9c-1.3,0.1-2.2,2.8-3.6,1c-1-1.2,0.9-2.2,1.3-3.3c2.5-6.1,9-9.6,10.3-16.4c1,0,2,0,3,0
					c1.1,1.4,0.1,2.7-0.3,4c-2.2,3.5-4,7.3-6.3,10.8C1402.2,1192.7,1401.2,1194.5,1399,1194.9z"/>
				<path class="st49" d="M941.6,1087.9c-1.3-11-0.3-22-0.5-33c-0.1-2.6-0.7-5.3,0.6-7.8C942.3,1060.7,942.3,1074.3,941.6,1087.9z"
					/>
				<path class="st50" d="M1405.2,937.7c0-10.5,0-21.1,0-31.6c0.2,0,0.3,0,0.5,0c0,10.6,0,21.2,0,31.7
					C1405.6,937.8,1405.4,937.7,1405.2,937.7z"/>
				<path class="st51" d="M1722.9,1174.8c-8.3,0-16.6,0-24.9,0c-0.4-0.2-0.5-0.3-0.4-0.5c0.1-0.2,0.2-0.2,0.3-0.2
					C1706.3,1174.3,1714.6,1173,1722.9,1174.8z"/>
				<path class="st52" d="M1668,1174.8c-7,0-14.1,0-21.1-0.1c7-1.3,14-0.8,21.1-0.6C1668,1174.4,1668,1174.6,1668,1174.8z"/>
				<path class="st39" d="M1409,1180c0.3-1.2,0.7-2.4,1-3.7c5.6,0,11.3-0.1,16.9-0.1c-2.8,1.6-6,0.4-8.9,0.8
					C1415.1,1178.3,1412.1,1179.3,1409,1180z"/>
				<path class="st53" d="M1698,1174.1c0,0.2,0,0.5,0,0.7c-5.3,0-10.7,0-16,0c-0.4-0.1-0.5-0.3-0.4-0.5c0.1-0.2,0.2-0.2,0.3-0.2
					C1687.3,1174.1,1692.6,1174.1,1698,1174.1z"/>
				<path class="st54" d="M1682,1174.1c0,0.2,0,0.5,0,0.7c-4.7,0-9.3,0-14,0c0-0.2,0-0.5,0-0.7
					C1672.6,1174.1,1677.3,1174.1,1682,1174.1z"/>
				<path class="st55" d="M762.9,1055.9c-1.7-3.9-0.5-8-0.8-11.9c0.3-0.4,0.6-0.4,0.8,0.1C762.9,1048,762.9,1051.9,762.9,1055.9z"/>
				<path class="st56" d="M940.1,1103.1c0.3-2.7-0.9-5.6,0.8-8.1C941,1097.7,941.5,1100.5,940.1,1103.1z"/>
				<path class="st57" d="M762.9,1044c-0.3,0-0.5,0-0.8-0.1c0-2.7,0-5.4,0-8.1C763.6,1038.5,763,1041.3,762.9,1044z"/>
				<path class="st58" d="M940.9,1039.9c-1.7-2.6-0.5-5.5-0.8-8.3C941.5,1034.3,941,1037.1,940.9,1039.9z"/>
				<path class="st59" d="M761.9,1033c-1.7-2.2-0.6-4.8-0.8-7.2C762.5,1028.1,762,1030.5,761.9,1033z"/>
				<path class="st60" d="M939.1,1112.3c0.1-2.1-0.8-4.3,0.8-6.3C940,1108.1,940.4,1110.3,939.1,1112.3z"/>
				<path class="st61" d="M939.9,1028c-1.6-1.8-0.6-4-0.9-6C940.4,1023.8,940,1025.9,939.9,1028z"/>
				<path class="st62" d="M760.9,1020c-1.5-1.5-0.7-3.3-0.9-5C761.6,1016.4,761,1018.3,760.9,1020z"/>
				<path class="st4" d="M761.1,759.3c-14.1,18.4-28,36.7-41.9,54.9c-15.6,20.5-31.3,41-46.8,61.6c-2,2.7-3.3,2.9-6.3,1.3
					c-125.2-67.6-280.8,5.3-309.3,145c-23.9,117.1,54.3,232.4,171.6,251.8c73.2,12.1,136.5-8.8,189.3-61c2.1-2.1,3.2-4,6.2-0.3
					c29.6,36,59.4,71.9,89.3,107.7c2.5,3,1.9,4.2-0.6,6.5c-48.8,45.3-105.5,75.6-170.6,89.5c-77.2,16.4-152.5,9.4-224.4-23.5
					c-94.4-43.2-159.2-114.4-194-212.4c-17.4-49-22.9-99.7-17.9-151.5C221.2,871,336.3,741.6,491.7,709.5
					c93.4-19.3,181.5-3.5,263.4,45.9C757,756.6,759,757.9,761.1,759.3z"/>
				<path class="st63" d="M559.1,652.9c6.3-1.4,12.6-1.4,18.9,0C571.7,652.9,565.4,652.9,559.1,652.9z"/>
				<path class="st64" d="M574.1,1236.8c3.6-1.8,7.4-0.5,11.1-0.8C581.6,1237.6,577.8,1236.9,574.1,1236.8z"/>
				<path class="st65" d="M552.7,1236c3.5,0.3,7-1,10.4,0.8C559.5,1236.8,556,1237.6,552.7,1236z"/>
				<path class="st66" d="M559,895.1c-2.6,1.8-5.5,0.6-8.3,0.8C553.3,894.4,556.2,895.1,559,895.1z"/>
				<path class="st67" d="M587.3,896c-2.7-0.3-5.6,0.9-8.2-0.8C581.9,895.1,584.7,894.3,587.3,896z"/>
				<path class="st68" d="M595.2,897c-1.7-0.2-3.6,0.7-5.1-0.8C591.9,896,593.7,895.5,595.2,897z"/>
				<path class="st69" d="M548,896.1c-1.5,1.5-3.4,0.7-5.2,0.8C544.4,895.5,546.2,896,548,896.1z"/>
				<path class="st70" d="M1409,1180c2.3-3.2,5.6-3.3,9-3c1.1,4.7,0.8,9.1-3.1,12.6c-3.9,3.5-2.4,7.4-0.9,11.3c-6,0-12,0-18.1,0
					c-0.2-2.7,3.4-3.4,3.1-6C1403.2,1190.5,1405,1184.5,1409,1180z"/>
				<path class="st47" d="M1456,1187c0,0.3,0,0.7,0,1c-2.1,4.1-2.4,8.4-2,12.9c-5.7,0-11.3,0-17,0.1c3.7-2.4,6.2-5.5,4.7-10.2
					c-0.9-2.7,0.8-2.7,2.6-2.7C1448.2,1187.9,1452.1,1188.3,1456,1187z"/>
			</g>
		</g>
	</g>
</g>
</svg>
