<?xml version="1.0" encoding="utf-8"?>
<!-- Generator: Adobe Illustrator 24.2.1, SVG Export Plug-In . SVG Version: 6.00 Build 0)  -->
<svg version="1.1" id="Layer_1" xmlns="http://www.w3.org/2000/svg" xmlns:xlink="http://www.w3.org/1999/xlink" x="0px" y="0px"
	 viewBox="0 0 612 792" style="enable-background:new 0 0 612 792;" xml:space="preserve">
<style type="text/css">
	.st0{fill:#FEFEFE;}
	.st1{fill:#004AAA;}
	.st2{fill:#81C337;}
	.st3{fill:#024AAB;}
	.st4{fill:#1A4E9E;}
	.st5{fill:#2C4870;}
	.st6{fill:#93BF5B;}
	.st7{fill:#80C337;}
	.st8{fill:#82C338;}
	.st9{fill:#81C338;}
	.st10{fill:#115999;}
	.st11{fill:#054EA5;}
	.st12{fill:#155D94;}
	.st13{fill:#77BB3F;}
	.st14{fill:#216B86;}
	.st15{fill:#1A6292;}
	.st16{fill:#1D668D;}
	.st17{fill:#2F7A6C;}
	.st18{fill:#67A94D;}
	.st19{fill:#296F7B;}
	.st20{fill:#4A8E62;}
	.st21{fill:#377E6D;}
	.st22{fill:#438869;}
	.st23{fill:#0A52A0;}
	.st24{fill:#8CA57E;}
	.st25{fill:#87B950;}
	.st26{fill:#698E68;}
	.st27{fill:#90B46F;}
	.st28{fill:#5B7268;}
	.st29{fill:#79A75E;}
	.st30{fill:#DCDFD9;}
	.st31{fill:#A5A8A3;}
	.st32{fill:#A3AD9C;}
	.st33{fill:#A4A4A4;}
	.st34{fill:#8EBA58;}
	.st35{fill:#8AB065;}
	.st36{fill:#3564AA;}
	.st37{fill:#83AF50;}
	.st38{fill:#BBBBBA;}
	.st39{fill:#6EAF46;}
	.st40{fill:#84AA62;}
	.st41{fill:#83B64C;}
	.st42{fill:#98AB7E;}
	.st43{fill:#86AA5E;}
	.st44{fill:#495E78;}
	.st45{fill:#89AE61;}
	.st46{fill:#858D7F;}
	.st47{fill:#85A364;}
	.st48{fill:#94A87F;}
	.st49{fill:#83A761;}
	.st50{fill:#335889;}
	.st51{fill:#8AA864;}
	.st52{fill:#86A464;}
	.st53{fill:#87A85F;}
	.st54{fill:#849C73;}
	.st55{fill:#8B9877;}
	.st56{fill:#86B05E;}
	.st57{fill:#040308;}
	.st58{fill:#4E5A84;}
	.st59{fill:#365085;}
	.st60{fill:#97AD84;}
	.st61{fill:#49597B;}
	.st62{fill:#1A4B94;}
	.st63{fill:#395284;}
	.st64{fill:#89B05E;}
	.st65{fill:#4A5271;}
	.st66{fill:#164693;}
	.st67{fill:#4A526F;}
	.st68{fill:#1D4B96;}
	.st69{fill:#4F5A7B;}
	.st70{fill:#3766AD;}
	.st71{fill:#3564AE;}
	.st72{fill:#2F5CA4;}
	.st73{fill:#88A87B;}
	.st74{fill:#8AA177;}
	.st75{fill:#88AC62;}
	.st76{fill:#87AE66;}
	.st77{fill:#36548D;}
	.st78{fill:#3A5482;}
	.st79{fill:#3664AD;}
	.st80{fill:#89997C;}
	.st81{fill:#80A168;}
	.st82{fill:#80956C;}
	.st83{fill:#355688;}
	.st84{fill:#385FA6;}
	.st85{fill:#39538A;}
	.st86{fill:#91AB7C;}
	.st87{fill:#84AD5E;}
	.st88{fill:#8AAF5E;}
	.st89{fill:#7FA663;}
	.st90{fill:#8FAF61;}
	.st91{fill:#82A961;}
	.st92{fill:#85AC67;}
	.st93{fill:#88A567;}
	.st94{fill:#86A26E;}
	.st95{fill:#3761A6;}
	.st96{fill:#869D68;}
	.st97{fill:#34578B;}
	.st98{fill:#375EA7;}
	.st99{fill:#26467D;}
	.st100{fill:#274884;}
	.st101{fill:#2D4089;}
	.st102{fill:#224D99;}
	.st103{fill:#2D4979;}
	.st104{fill:#2B437A;}
	.st105{fill:#2B4675;}
	.st106{fill:#2C4C7F;}
	.st107{fill:#304E86;}
	.st108{fill:#385785;}
	.st109{fill:#1E335A;}
	.st110{fill:#2E4987;}
	.st111{fill:#1A4786;}
	.st112{fill:#87A85C;}
	.st113{fill:#6EB146;}
	.st114{fill:#277075;}
	.st115{fill:#5EA253;}
	.st116{fill:#52975C;}
	.st117{fill:none;}
</style>
<g>
	<g>
		<path class="st0" d="M50,140c170.3,0,340.6,0,510.8,0c0.9,0,1.1,0.2,1.1,1.1c0,169.9,0,339.8,0,509.7c0,0.9-0.2,1.1-1.1,1.1
			c-169.9,0-339.8,0-509.7,0c-0.9,0-1.1-0.2-1.1-1.1C50,480.6,50,310.3,50,140z"/>
		<path d="M228.6,364.2c1-1.4,2-2.7,3.1-4.1c8.1-10.6,16.2-21.1,24.3-31.7c0.2-0.2,0.3-0.4,0.5-0.6c0.9-1.1,1.1-1.1,2.2-0.1
			c8.1,7.9,14.6,16.9,19.6,27.1c2.2,4.4,4.1,8.9,5.5,13.6c0.2,0.7,0.5,0.9,1.2,0.9c15.6,0.3,31.2,0.7,46.9,1c1.9,0,2.6,0.8,2.6,2.8
			c0,9.9,0,19.7,0,29.6c0.2,0,0.4-0.4,0.6-0.7c9.5-10.6,18.9-21.3,28.4-31.9c0.5-0.6,1-0.8,1.8-0.8c20.3,0,40.6,0,60.9,0
			c0.9,0,1.5,0.4,1.9,1c5.3,7.4,10.7,14.8,16,22.1c0.5-0.2,0.6-0.6,0.8-0.9c6-8.3,12.1-16.5,18-24.9c0.8-1.1,1.4-1.1,2.5-0.5
			c19,10.6,38.1,21.1,57.1,31.7c0.4,0.2,0.8,0.4,1.2,0.7c0.5,0.4,0.6,1,0.2,1.5c-5,5.6-9.7,11.4-14.6,17.1
			c-5.4,6.4-10.9,12.7-16.2,19.2c-1,1.2-2,1.6-3.5,1.6c-23.1,0.1-46.2,0.3-69.4,0.5c-46.3,0.3-92.7,0.6-139,0.9
			c-0.8,0-1.2,0.2-1.6,1c-3,6.8-6.8,13.1-11.3,19c-1.6,2.1-1.9,2.1-3.6,0.1c-5-6.2-10.1-12.4-15.1-18.6c-4.1-5.1-8.2-10.2-12.3-15.2
			c-0.9-1.1-1.6-2.1-1.3-3.6c-0.2-0.3-0.2-0.7-0.2-1.1c0.1-5,0.1-10,0-14.9c0-2.9-0.3-5.8-0.2-8.7c0.1-1.5,0-3,0-4.5
			c0-0.2-0.1-0.4-0.1-0.6c-0.2-0.8,0-1.7-0.2-2.5c-0.4-3.9-1.3-7.7-2.3-11.5c-0.6-2.5-1.5-5-2.2-7.5c-0.1-0.5-0.2-1-0.5-1.4
			c-0.4-1-0.8-2.1-1.3-3.1C228.7,365.4,228.6,364.8,228.6,364.2z"/>
		<path d="M96,361.5c2.9-6.7,6.2-13.2,10.5-19.2c15.3-21.6,35.9-35.4,61.9-41.1c1.2-0.3,2.4-0.5,3.7-0.8c1.7-0.4,3.5-0.6,5.2-1
			c0.8-0.2,1.7,0,2.6-0.3c1.3-0.2,2.5,0,3.8-0.3c3.4,0,6.8-0.1,10.2,0c1.2,0.3,2.4,0.1,3.6,0.3c0.8,0.3,1.7,0.1,2.5,0.3
			c0.7,0.2,1.4,0.1,2,0.3c0.6,0.2,1.2,0.1,1.8,0.3c0.5,0.1,1,0.2,1.5,0.3c0.6,0.2,1.3,0.2,1.9,0.4c1.8,0.3,3.5,0.7,5.2,1.1
			c0.6,0.2,1.1,0.3,1.7,0.4c1.3,0.3,2.5,0.8,3.8,1.1c0.5,0.2,0.9,0.3,1.4,0.5c1,0.4,2.1,0.7,3.1,1.1c0.4,0.2,0.8,0.4,1.2,0.5
			c9,3.3,17.3,7.9,24.9,13.6c0.5,0.4,1.1,0.6,1.2,1.3c0.1,1.1-0.5,1.9-1.1,2.7c-9.4,12.4-18.9,24.8-28.3,37.1
			c-1.7,2.2-3.5,4.4-5.3,6.6c-0.6,0.6-1.2,0.3-1.8-0.1c-0.8-0.6-1.6-1.3-2.5-1.8c-0.3-0.2-0.6-0.4-0.9-0.6c-2.4-1.3-4.9-2.5-7.5-3.4
			c-0.4-0.3-0.8-0.4-1.3-0.5c-0.1,0-0.2,0-0.4-0.1c-0.5-0.2-1.1-0.4-1.6-0.4c-1.8-0.1-3.5-0.9-5.3-1c-1.1-0.2-2.2-0.1-3.3-0.4
			c-2.2-0.1-4.3,0.1-6.5,0.4c-0.2,0.1-0.4,0.1-0.6,0.1c-0.5,0-0.9,0-1.3,0.2c-4,0.6-7.7,1.9-11.3,3.6c-2.1,1-4,2.2-5.9,3.5
			c-0.3,0.2-0.6,0.4-0.9,0.6c-1.7,1.2-3.3,2.7-4.7,4.2c-0.9,0.9-1.8,1.8-2.7,2.6c-4.4,5-7.2,10.9-8.5,17.4
			c-2.8,13.7,0.4,25.9,9.5,36.6c0.4,0.4,0.8,0.8,1.2,1.2c1.6,0.9,2.6,2.4,4,3.5c1.9,1.5,3.9,2.9,6.1,4.1c0.3,0.2,0.7,0.4,1,0.6
			c0.7,0.4,1.3,0.7,2.1,1c0.3,0.1,0.7,0.3,1,0.5c0.1,0,0.2,0.1,0.3,0.1c0.4,0.1,0.7,0.3,1.1,0.4c1.1,0.4,2.1,0.8,3.2,1
			c0.6,0.2,1.2,0.3,1.7,0.4c0.1,0,0.2,0.1,0.4,0.1c0.7,0.2,1.3,0.3,2,0.4c0.2,0,0.4,0.1,0.6,0.1c0.6,0.2,1.2,0.1,1.8,0.2
			c2.7,0.3,5.3,0.5,8,0.1c1.1,0.1,2.2-0.2,3.3-0.4c1.6-0.2,3.2-0.6,4.8-1c0.5-0.1,0.9-0.3,1.4-0.4c0.1,0,0.2-0.1,0.3-0.1
			c0.4-0.1,0.8-0.2,1.1-0.4c0.1,0,0.2-0.1,0.3-0.1c0.4-0.1,0.7-0.2,1.1-0.4c0.1,0,0.2-0.1,0.3-0.1c0.4-0.1,0.7-0.3,1-0.5
			c1-0.5,1.9-1,2.9-1.4c0.4-0.2,0.7-0.3,1.1-0.5c0.5-0.2,0.8-0.7,1.4-0.6c1.2,0.7,1.2,0.7,1.9-1.2c0.1-0.1,0.2-0.1,0.3-0.1
			c0.2,0,0.3,0.2,0.4,0.3c0.7,0.1,0.9-0.9,1.8-0.6c0.9,0.3,1-0.5,1.3-1.3c0.3-1,1.3-1.5,2.1-2.1c0.8-0.6,1.4-1.3,1.4-2.4
			c-0.1-0.8,0.7-1.2,1.1-1.7c0.5-0.7,1-1.3,1.5-1.9c0.3-0.4,0.6-0.8,1.2-0.6c1.6,0.1,2.5,1.2,3.4,2.3c5.4,6.4,10.7,12.9,16,19.3
			c5.9,7,11.7,14.1,17.6,21.1c0.5,0.6,0.7,1.2,0.1,1.9c-8,8.2-17.1,15-27.4,20.2c-6.2,3.1-12.6,5.6-19.3,7.3
			c-0.6,0.1-1.1,0.3-1.7,0.5c-5.2,1.7-10.6,2.2-16,2.8c-0.8,0-1.6,0-2.5,0c-3.3,0.4-6.5,0.3-9.8,0c-0.4,0-0.7,0-1.1-0.1
			c-0.7,0-1.3,0-2,0c-1.2-0.1-2.4-0.2-3.6-0.4c-0.5-0.1-1-0.1-1.4-0.1c-3.2-0.4-6.4-1-9.5-1.6c-1.8-0.4-3.6-0.8-5.4-1.5
			c-0.5-0.2-1.1-0.4-1.7-0.5c-3.3-0.9-6.4-2.3-9.6-3.5c-0.4-0.2-0.8-0.4-1.2-0.5c-1.5-0.7-2.9-1.4-4.4-2.1c-0.3-0.2-0.6-0.4-0.9-0.5
			c-2.4-1.2-4.8-2.6-7.1-4c-0.3-0.2-0.5-0.4-0.8-0.6c-0.3-0.2-0.5-0.3-0.8-0.5c-0.2-0.2-0.5-0.4-0.7-0.5c-0.3-0.1-0.5-0.3-0.8-0.5
			c-0.2-0.2-0.5-0.4-0.7-0.5c-0.3-0.1-0.5-0.3-0.8-0.5c-0.2-0.2-0.5-0.4-0.7-0.5c-0.3-0.2-0.5-0.4-0.8-0.5c-0.3-0.2-0.6-0.3-0.9-0.5
			c-2.2-1.8-4.5-3.6-6.7-5.5c-0.4-0.3-0.7-0.6-0.9-1c-0.2-0.3-0.5-0.5-0.8-0.7c-2.2-1.8-4.2-3.7-5.9-5.9c-0.8-1-1.7-1.9-2.6-2.9
			c-0.2-0.2-0.4-0.4-0.5-0.6c-0.1-0.3-0.3-0.6-0.6-0.8c-0.9-1.3-2.1-2.4-2.9-3.7c-0.2-0.3-0.4-0.6-0.6-0.8c-3-4.1-5.8-8.4-8-12.9
			c-0.6-1.2-1.5-2.3-1.8-3.7c-0.2-0.4-0.2-0.9-0.4-1.2c-0.1-0.1-0.1-0.2-0.2-0.3c-0.2-0.4-0.4-0.7-0.5-1.1c-0.9-2-1.7-4.2-2.5-6.3
			c-0.1-0.5-0.3-0.9-0.5-1.4c-0.7-2.3-1.5-4.5-2-6.8c-0.1-0.6-0.3-1.3-0.5-1.9c-0.2-0.9-0.4-1.8-0.6-2.7c-0.1-0.7-0.3-1.4-0.4-2.1
			c-0.1-1.1-0.4-2.2-0.6-3.4c0-1-0.2-2-0.4-3c-0.1-0.2-0.1-0.4-0.1-0.6c0-0.6,0-1.1-0.1-1.7c-0.2-1.4-0.3-2.7-0.4-4.1
			c0-0.9,0-1.8,0-2.7c0-1.9,0-3.9,0-5.8c0-0.9,0-1.8,0-2.7c0-0.4,0-0.7,0.1-1.1c0.3-0.9,0.1-1.8,0.2-2.7c0.2-0.8,0.1-1.7,0.3-2.5
			c0.2-1,0.4-2,0.4-3c1-6.7,2.6-13.3,5.1-19.6c0.1-0.3,0.4-0.6,0.4-1C95.3,362.7,95.9,362.2,96,361.5z"/>
		<path class="st1" d="M94.5,432.3c0.8,2.1,1.7,4.3,2.5,6.4c0.1,0.4,0.2,0.8,0.5,1.1l0,0c0.1,0.4,0.1,0.9,0.5,1.2
			c2,3.9,4,7.8,6.4,11.5c1.2,1.8,2.4,3.5,3.5,5.2c0.2,0.3,0.2,0.6,0.6,0.8c1,1.2,2,2.5,2.9,3.7c0.2,0.3,0.3,0.6,0.5,0.8
			c0.2,0.2,0.3,0.3,0.5,0.5c0.7,1.1,1.6,2.1,2.6,3c1.2,1.1,2.1,2.4,3.3,3.5c0.9,0.8,1.8,1.5,2.6,2.4c0.1,0.4,0.5,0.4,0.8,0.6
			c2.1,2,4.4,3.7,6.6,5.5c0.4,0.3,0.7,0.6,1.1,1c0.2,0.3,0.5,0.3,0.8,0.5c0.3,0,0.5,0.2,0.7,0.4c0.2,0.3,0.5,0.4,0.8,0.6
			c0.2,0.2,0.5,0.3,0.7,0.5c0.2,0.3,0.5,0.4,0.8,0.5c0.2,0.2,0.5,0.3,0.7,0.5c0.2,0.3,0.5,0.4,0.8,0.5c0.2,0.2,0.5,0.3,0.7,0.5
			c0.2,0.3,0.5,0.4,0.8,0.5c2.4,1.3,4.8,2.7,7.2,4c0.2,0.2,0.5,0.4,0.9,0.5c1.5,0.5,2.9,1.3,4.4,2c0.3,0.3,0.7,0.4,1.1,0.5
			c2.4,0.9,4.8,1.7,7.1,2.7c0.8,0.4,1.8,0.2,2.5,0.8c0.5,0.3,1,0.4,1.6,0.5c1.3,0.6,2.7,0.6,4.1,1.1c1.5,0.6,3.2,0.5,4.7,0.9
			c2,0.6,4.2,0.4,6.2,1c0.5,0.2,1,0.1,1.5,0.1c1.2,0.1,2.4,0.3,3.5,0.4c0.7,0.2,1.4,0,2.2,0.1c3,0.5,5.9,0.2,8.9,0.3
			c0.6,0,1.2,0,1.8-0.2c0.9-0.2,1.7,0.1,2.6-0.2c5-0.6,10-1.1,14.8-2.4c0.3-0.1,0.7,0,1.1-0.1c-5.4,2.8-11.1,4.8-16.9,6.1
			c-34.5,7.6-64.5-0.8-89.3-26c-13.5-13.7-21.5-30.4-24.4-49.4c-3.5-23.1,1.1-44.6,13.6-64.3c0.2-0.3,0.5-0.6,0.7-0.9
			c0.2,0.8-0.5,1.3-0.5,2c-0.2,0.2-0.3,0.5-0.4,0.8c-0.7,2.2-1.4,4.4-2.1,6.6c-1.4,4.3-2.2,8.7-2.9,13.1c-0.3,1-0.3,2-0.5,3
			c-0.1,0.8,0.2,1.7-0.3,2.5c-0.4,0.9,0.1,1.9-0.3,2.8c0,0.3,0,0.7-0.1,1c-0.2,0.9,0,1.8-0.1,2.8c-0.1,2-0.2,3.9,0,5.9
			c0.1,0.9-0.1,1.9,0.1,2.8c0.1,1.4,0.3,2.7,0.4,4.1c0.1,0.6-0.1,1.1,0.1,1.7c0,0.2,0,0.3,0,0.5c0.2,1,0,2.1,0.5,3
			c0.2,1.2,0.6,2.3,0.5,3.4c0.2,0.7,0.1,1.4,0.5,2.1c0.2,0.9,0.6,1.7,0.5,2.7c0.2,0.6,0.2,1.2,0.5,1.8c0.7,2.3,1.4,4.6,2,6.9
			C94.2,431.4,94.2,431.9,94.5,432.3z"/>
		<path class="st2" d="M204.5,438.5L204.5,438.5l-0.2,0c-0.4,0.2-1,0.1-1.3,0.5l0,0c-0.4,0.1-0.9,0.1-1.3,0.5l-0.1,0l-0.1,0
			c-0.5,0.1-1,0.1-1.3,0.5c-1.6,0.5-3.2,1-4.9,1.1c-1.1,0.1-2.3,0.2-3.4,0.4c-2.4,0.4-4.8,0.2-7.2,0c-0.4,0-0.8,0-1.1-0.2
			c-0.5-0.4-1.2,0.1-1.7-0.3c-0.2,0-0.3,0-0.5-0.1c-0.6-0.4-1.4-0.3-2.1-0.5l-0.1,0l-0.1,0c-0.5-0.4-1.2-0.3-1.8-0.5
			c-1.2-0.1-2.3-0.6-3.4-1.1c-0.2-0.4-0.7-0.3-1-0.5l0,0c-0.3-0.4-0.7-0.4-1.1-0.5c-0.8-0.2-1.5-0.5-2.1-1c-0.3-0.3-0.7-0.4-1-0.5
			c-3.8-2-7.2-4.5-10-7.8c2.1,0.6,4.2,1.3,6.3,1.9c10.4,2.8,20.8,3,31.3,0.5c8.2-2,15.7-5.5,22.6-10.4c1.5-1.1,2.2-0.9,3.3,0.6
			c0.5,0.7,1,1.4,1.5,2.2c-1.7,1.1-2.5,2.9-3.7,4.3c0,0.2,0,0.3-0.1,0.5c-0.3,0.3-0.7,0.6-0.9,0.9c-1.4,1.6-3,3-4.6,4.3
			c-0.4,0.3-0.8,0.6-1.3,0.7c-0.1,0-0.1,0-0.2,0.1c-0.5,0.6-1.1,1.3-2,1.2c-0.5,0.1-0.7,0.7-1.2,0.7c-0.3,0.2-0.8,0.1-1,0.6
			c-0.9,0.6-1.9,1.1-3,1.4C205.2,438.2,204.8,438.2,204.5,438.5z"/>
		<path class="st2" d="M249.8,320.2c-7.9-6.1-16.4-10.9-25.7-14.4c-0.2-0.1-0.4-0.2-0.5-0.3c-0.3-0.3-0.7-0.3-1.1-0.5
			c-1.1-0.2-2.1-0.6-3.2-1c-0.4-0.3-0.9-0.3-1.3-0.5c-1.3-0.2-2.6-0.7-3.9-1c-0.4-0.5-1-0.2-1.5-0.5c-1.8-0.4-3.7-0.7-5.5-1.1
			c-0.5-0.6-1.2-0.1-1.7-0.4c-0.5-0.1-1.1,0.1-1.5-0.3c-0.6-0.4-1.2,0-1.8-0.3c-0.7-0.1-1.3,0.1-2-0.2c-0.8-0.4-1.7,0-2.5-0.3
			c-1.2-0.1-2.3,0.1-3.5-0.3c-0.8-0.3-1.6-0.1-2.3-0.1c-2.7,0-5.4-0.2-8.1,0.1c-1.2,0.4-2.5,0.2-3.8,0.3c-0.8,0.3-1.7-0.1-2.5,0.3
			c-1.7,0.3-3.5,0.7-5.3,0.7c2.7-1,5.5-1.4,8.3-1.9c6.4-1.1,12.8-1.5,19.3-1.3c11.2,0.4,22.1,2.5,32.6,6.6c0.5,0.2,0.8,0.6,1.3,0.6
			c0.2,0.3,0.5,0.1,0.8,0.2c6,2.4,11.6,5.4,17,8.9c0.9,0.6,1.2,1.4,0.8,2.5C251.5,317.6,250.7,318.9,249.8,320.2z"/>
		<path class="st1" d="M228.6,364.2c0.5,1.7,1.6,3.1,1.9,4.8c0.2,0.4,0.2,0.9,0.5,1.3c1.1,2.7,1.8,5.6,2.5,8.4
			c0.6,2.5,1.3,5,1.7,7.6c0.2,1.1,0.4,2.1,0.3,3.2c0.3,0.8-0.1,1.7,0.2,2.5c0,0.1,0.1,0.2,0.1,0.3c0,1.6-0.1,3.1,0.1,4.7
			c0.3,7.8,0.3,15.6,0.3,23.4c0,0.5-0.1,1-0.3,1.5c-1.5-0.3-1.8-0.8-1.7-2.4c0.1-1.2,0.1-2.3,0-3.5c-0.2-9.3-1.6-18.5-4.3-27.4
			c-1.8-5.9-4-11.5-6.8-17c-0.5-1-0.3-1.9,0.5-2.6c1.3-1.2,2.6-2.3,3.9-3.5C228,365.1,228.5,364.7,228.6,364.2z"/>
		<path class="st3" d="M183.2,358.5c0.2,0,0.3,0,0.5-0.1c2.2-0.1,4.4-0.4,6.7-0.3c1.1,0.4,2.2,0.1,3.3,0.3c1.9-0.1,3.6,0.8,5.5,1
			c0.5,0.3,1.1,0.3,1.6,0.5c0.1,0,0.1,0,0.2,0c0.4,0.4,0.9,0.4,1.3,0.5c2.7,0.8,5.3,2,7.7,3.5c0.2,0.3,0.5,0.4,0.8,0.5
			c1,0.5,1.8,1.2,2.6,1.8c0.5,0.4,1,0.5,1.6,0.4c-0.7,0.9-1.4,1.8-2.1,2.6c-0.6,0.7-1.2,0.2-1.8-0.1c-3.7-1.9-7.6-3.4-11.6-4.4
			c-13.8-3.2-26.9-1.2-39,6.2c-0.3,0.2-0.6,0.4-1,0.5c-0.9,0.2-0.7-0.3-0.5-0.8c1.4-1.6,3-3,4.7-4.2c0.3-0.2,0.6-0.2,0.8-0.5
			c1.8-1.4,3.8-2.5,5.9-3.5c2.8-1.4,5.6-2.4,8.6-3.2c1-0.2,1.9-0.5,2.9-0.5C182.4,358.5,182.8,358.8,183.2,358.5z"/>
		<path class="st4" d="M159,370.7c0,0.4,0,0.8,0.5,0.8c-1,0.7-1.9,1.5-3,2C157,372.3,158.1,371.6,159,370.7z"/>
		<path class="st5" d="M234.3,416c0.4,1.2,0.3,2.3,0,3.5C234.3,418.3,234.3,417.2,234.3,416z"/>
		<path class="st6" d="M234.3,304.7c-0.3,0.1-0.7,0.4-0.8-0.2C233.8,304.4,234.1,304.5,234.3,304.7z"/>
		<path class="st0" d="M259.5,443c-3.2-4-6.5-8-9.7-12c-1.6-1.9-3.1-3.9-4.7-5.8c-0.4-0.5-0.6-0.9-0.6-1.6c0-8.8,0.2-17.6,0-26.5
			c-0.2-7.2-0.5-14.5-2.9-21.5c-1.2-3.4-2.2-6.9-4-10c-0.3-0.5-0.2-0.8,0.1-1.2c4.6-6,9.3-12,13.9-17.9c0.6-0.1,0.8,0.5,1.1,0.8
			c3.2,4.6,5.8,9.5,8.1,14.6c3.2,7,5.4,14.2,6.9,21.7c0.8,4.1,1.2,8.2,1.5,12.4c0.1,2,0.3,4.1,0.2,6.1c-0.2,8-1.2,15.8-3.2,23.6
			c-1.4,5.4-3.2,10.6-5.5,15.6C260.3,442,260.1,442.6,259.5,443z"/>
		<path class="st0" d="M439.2,405c0,4.4-0.1,8.8-0.1,13.2c0,1-0.6,0.8-1.1,0.8c-12.5,0.1-24.9,0.1-37.4,0.2c-3.6,0-7.2,0-10.7,0.1
			c-0.8,0-1-0.2-1-1c0.1-4.2,0.1-8.5,0.1-12.7c0-0.8,0.1-1.1,1-1.1c5.4,0,10.8-0.2,16.2-0.2c1.1,0,1.5-0.4,1.5-1.5
			c-0.1-2.5,0-4.9,0-7.4c0-1-0.4-1.2-1.3-1.2c-5.3,0.1-10.7,0.1-16,0.3c-1.2,0-1.5-0.2-1.5-1.4c0.1-5.1,0.2-10.2,0.2-15.4
			c0-1,0.2-1.1,1.2-1.1c2.9,0.1,5.8,0,8.7,0.1c5.1-0.1,10.2-0.1,15.2,0c4.6,0,3.2-0.7,5.9,2.8c5.5,7.3,11,14.7,16.5,22
			c0.7,0.9,1.3,1.8,2,2.7C439,404.4,439,404.7,439.2,405z"/>
		<path class="st0" d="M286.3,377.9c12.9,0.3,25.7,0.6,38.4,0.9c1.6,0,1.6,0,1.6,1.6c-0.1,12.8-0.2,25.6-0.3,38.4c0,0.7,0,1.1-1,1.1
			c-12.6,0-25.2,0.1-37.9,0.2c-0.2,0-0.5,0-0.8,0C289.3,405.9,289.3,391.9,286.3,377.9z"/>
		<path class="st0" d="M509.5,405c-0.7,1.3-1.8,2.3-2.7,3.4c-2.6,3.1-5.3,6.2-7.9,9.3c-0.5,0.6-0.9,0.8-1.7,0.8
			c-16.1,0.1-32.3,0.2-48.4,0.3c-0.9,0-1.1-0.3-1.1-1.1c0.1-5.8,0.2-11.6,0.2-17.4c0-0.5,0.1-1,0.4-1.4c4.7-6.4,9.3-12.8,14-19.1
			c0.6-0.2,1.1,0.1,1.5,0.3c4.3,2.4,8.6,4.6,12.9,6.9c7.7,4.1,15.3,8.3,23,12.4c2.7,1.5,5.4,3,8.1,4.4
			C508.4,404.3,509,404.5,509.5,405z"/>
		<path class="st7" d="M259.5,443c1.5-3.5,3-6.9,4.2-10.5c2.5-7.5,4.2-15.2,4.9-23.1c0.5-6,0.5-11.9-0.1-17.8
			c-0.6-6.2-1.9-12.3-3.8-18.3c-1.3-4.2-2.8-8.3-4.7-12.3c-2.3-5-5-9.8-8.2-14.3c-0.1-0.1-0.2-0.2-0.3-0.2c1.2-1.5,2.3-3,3.5-4.5
			c0.7-0.7,1.3-1.7,2.6-1c1.7,1.8,3.1,3.7,4.5,5.7c0.2,0.6,0.5,1,1,1.3c1.5,2,2.8,4.2,4.1,6.4c1,1.7,1.9,3.5,2.8,5.3
			c0.1,0.4,0.2,0.8,0.5,1.1c0.6,1,1.3,2,1.5,3.2c0.2,0.4,0.1,0.8,0.5,1.1c0.3,0.8,0.7,1.7,1,2.5c0.2,0.5,0,1.1,0.5,1.5l0,0
			c0.2,0.4,0.2,0.9,0.4,1.3c0.4,1,0.9,1.9,1,3c0.2,0.5,0,1.1,0.5,1.5c0.6,2,1.3,4,1.5,6.2c0.2,0.7,0.1,1.4,0.5,2.1
			c0.3,1.1,0.5,2.1,0.6,3.2c0.3,0.6-0.2,1.2,0.3,1.8c0.3,0.5,0.1,1.1,0.2,1.7c0.2,1.6,0.1,3.2,0.5,4.8c0.1,0.6,0.1,1.2,0.2,1.8
			c-0.1,2.2,0,4.5,0,6.7c0,0.6,0.1,1.2-0.1,1.8c-0.1,1.1,0.2,2.2-0.2,3.2c-0.5,0.8,0,1.7-0.3,2.6c0,0.3,0,0.6-0.1,0.9
			c-0.5,0.9-0.3,1.9-0.5,2.9c0,0.6,0.1,1.1-0.3,1.6c-0.3,0.4,0,0.9-0.2,1.3c-0.1,0.4,0.1,0.9-0.2,1.3c-0.4,0.3,0,0.9-0.3,1.2
			c-0.3,2.1-0.9,4.2-1.5,6.2c-0.4,0.4-0.3,0.9-0.5,1.3c-0.2,1.1-0.7,2.1-1,3.2c-0.4,0.3-0.3,0.9-0.5,1.3c0,0.1,0,0.1,0,0.2
			c-0.3,0.3-0.3,0.7-0.5,1.1c-1.3,3.4-2.7,6.8-4.6,10c-0.9,1.6-1.9,3.2-2.9,4.8c-0.5,0.8-1,0.8-1.6,0.4
			C262.5,446.8,260.7,445.1,259.5,443z"/>
		<path class="st0" d="M344.9,404.3c7.1-7.9,14-15.7,20.9-23.5c1-1.2,2.1-2.3,3.1-3.5c0.4-0.4,0.7-0.7,1.4-0.7c2.6,0,5.2,0,7.7,0
			c0.7,0,0.9,0.2,0.9,0.9c-0.1,13.6-0.2,27.2-0.3,40.8c0,0.7-0.1,1-0.9,0.9c-1.7,0-3.5,0-5.2,0c-0.3,0-0.6,0-0.9-0.3
			c-1.9-2.3-4.2-4-6.7-5.5c-4.7-3-9.6-5.5-14.9-7.3C348.2,405.7,346.8,404.8,344.9,404.3z"/>
		<path class="st2" d="M491,427c-1.4,1.7-2.8,3.3-4.1,5c-0.5,0.6-1,0.4-1.6,0.4c-11.3,0.1-22.6,0.1-33.9,0.2c-1.9,0-3.7,0-5.6,0.1
			c-2.8-0.2-5.6,0-8.3,0c-2.4,0-4.8,0-7.2,0c-1.4-0.7-2.7-1.4-4.3-1.4c-0.7,0-1.2-0.4-1.2-1.2c0-0.7,0.4-1.1,1.1-1.3
			c0.3-0.1,0.7-0.1,1-0.1c1.3,0.1,2.4-0.1,2.9-1.6c0.2-0.6,0.8-0.4,1.3-0.5c7.1-0.1,14.2-0.1,21.3-0.2c1.7,0,3.4,0.2,5.2,0
			c1.4,0,2.8,0,4.2,0c3.1,0,6.3,0,9.4,0c3.7,0,7.3,0,11,0c2.7,0.1,5.3-0.1,8-0.1C490.4,426.3,491.1,426,491,427z"/>
		<path class="st1" d="M328.2,433.4c-7.5,0-15.1,0.1-22.6,0.1c-7.3,0.1-14.6,0.1-21.8,0.2c-1.4,0-1.4,0-0.9-1.3
			c0.4-1.3,0.8-2.6,1.2-3.9c0.2-0.6,0.4-1,1.2-1c9.2,0,18.5,0,27.7,0c0.4-0.2,0.9-0.1,1.4-0.1c6.7,0,13.3,0,20,0
			c0.9,0.5,1.8,0.8,2.8,0.9c1.2,0.2,1.6,1.1,1.1,2.1c-0.5,1.1-1.2,2.1-2.7,2c-0.3,0-0.6,0-0.9,0.1c-2,1.3-4.3,0.7-6.4,0.7
			c-0.5,0-0.9,0-1.3,0C327.2,433.4,327.9,432.7,328.2,433.4z"/>
		<path class="st8" d="M509.5,405c-2-0.6-3.6-1.8-5.4-2.7c-12.7-6.8-25.4-13.7-38.2-20.5c-1.2-0.6-2.3-1.5-3.6-1.9
			c0.8-1,1.5-2.1,2.2-3.1c0.4-0.6,0.7-0.8,1.5-0.4c12.1,6.8,24.3,13.6,36.5,20.3c3.2,1.8,6.4,3.5,9.7,5.4
			C511.2,403.1,510.6,404.3,509.5,405z"/>
		<path class="st9" d="M438.7,404.5c-1.9-2.5-3.8-5-5.7-7.5c-4.8-6.5-9.7-12.9-14.5-19.4c-0.5-0.7-1.1-1-1.9-1
			c-5.4,0.1-10.8,0.1-16.2,0.1c-0.4,0-0.8,0-1.2-0.1c0.9-0.2,1.8-0.1,2.7-0.1c7,0,14,0,20.9-0.1c0.7,0,1.1,0.2,1.6,0.8
			c4.6,6.3,9.1,12.7,13.8,18.9c1.3,1.7,1.5,3.2,1.1,5.1c-0.3-0.5,0-1-0.2-1.4c0,1.3,0,2.6,0,3.9
			C439.1,404.1,439.3,404.6,438.7,404.5z"/>
		<path class="st0" d="M355.7,419.5c-1.3,0-2.4,0-3.5,0c-5.7,0-11.3,0.1-17,0.2c-0.9,0-1.3-0.2-1.2-1.2c0.1-1.5,0.1-3.1,0.1-4.6
			c0-1.4,0.3-1.7,1.7-1.6c3.2,0.1,6.3,1,9.3,2.1c2.9,1,5.7,2.2,8.5,3.6C354.3,418.3,355,418.7,355.7,419.5z"/>
		<path class="st10" d="M334.5,427.5c-7.2,0-14.4,0-21.6,0c0.6-0.3,1.2-0.2,1.8-0.2c6.2,0,12.4-0.1,18.6-0.1c1.6,0,3.1-0.4,4.7-0.1
			c5,0,10,0,15.1,0c0.8,0.2,1.6,0.1,2.4,0.1c1.1,0,1.6,0.4,1.5,1.5c0,1.3,0.4,2,1.7,2.4c0.7,0.2,1.2,0.8,1.6,1.3
			c0.5,0.6-0.3,0.6-0.6,0.7c-4.5,0-9,0-13.5,0c-0.7-0.7-0.5-1.4,0.2-2c0.8-0.7,1.7-1,2.7-1.1c0.8-0.1,1.6-0.2,2.3-0.3
			c0.6-0.1,1.2-0.1,1.2-0.9c0-0.9-0.8-0.8-1.4-0.9c-1.8,0-3.6,0-5.4,0c-1,0-2,0-3,0c-2.3,0.1-4.6,0-7,0
			C335.4,427.9,334.9,427.8,334.5,427.5z"/>
		<path class="st11" d="M334.5,427.5c2.8,0,5.7,0,8.5,0c1.1,0.3,1.5,1,1.4,2.1c-0.1,1.1,0.2,2.3-0.3,3.4c-0.1,0.2-0.3,0.2-0.6,0.2
			c-2.6,0-5.3,0.1-7.9,0c-0.2,0-0.3,0-0.5-0.1c0,0.2,0.4,0.1,0.3,0.3c-2.4,0-4.8,0-7.2,0c-0.6-0.4-1.3,0-1.9-0.4c1.9,0,3.8,0,5.7,0
			c0.8,0,1.5-0.1,2-0.7c0.5-0.6,1.3-0.2,1.9-0.3c1-0.1,2.4-1.9,2-2.8c-0.3-0.7-1.2-0.7-1.8-0.7C335.3,428.5,334.7,428.3,334.5,427.5
			z"/>
		<path class="st12" d="M360,433c0.1-0.1,0.2-0.3,0.3-0.4c-1.2,0-1.3-1.5-2.5-1.6c-0.6,0-1.1-0.5-1-1.4c0.2-2.4-0.2-2.2-2-2.2
			c-0.4,0-0.8,0.1-1.2-0.2c0.1,0,0.1-0.1,0.2-0.1c1.3-0.1,2.5,0.1,3.8-0.1c2.4,0,4.8,0,7.3,0c-0.2,1.2-0.1,2.2,0.8,3.1
			c0.6,0.6,0.3,1.7,0.4,2.5c0,0.3-0.3,0.5-0.6,0.5C363.6,433,361.8,433.3,360,433z"/>
		<path class="st13" d="M431,426.5c-0.5,0.2-0.9,0.4-1.1,1.1c-0.3,1-1,1.6-2.2,1.4c-0.5-0.1-1,0-1.5,0c-0.7,0-1.1,0.3-1.2,1
			c0,0.8,0.6,1,1.2,0.9c1.2-0.1,2.3,0.2,3.3,0.9c0.2,0.2,0.5,0.3,0.5,0.6c-2,0.3-4,0.1-6,0.1c-0.6,0-1.2,0-1.9,0c-0.4,0-0.9,0-1.3,0
			c-0.4-0.1-0.6-0.5-0.7-0.8c-0.5-1.2-1.3-1.5-2.5-1.3c-0.9,0.2-1.9,0.1-2.9,0c-0.6-0.1-1.1-0.3-0.8-1c0.7-0.6,1.4-0.4,2.1-0.2
			c1,0.2,1.9,0.2,2.8-0.3c0.2-0.1,0.5-0.2,0.7-0.2c1.4,0,2.6-0.4,3.1-1.8c0.1-0.2,0.3-0.2,0.5-0.2c0.9,0,1.9,0,2.8,0
			c1.3,0,2.5,0.1,3.8-0.1C430.1,426.5,430.6,426.5,431,426.5z"/>
		<path class="st14" d="M372,427c2.8,0,5.6,0,8.5,0c0.4-0.2,0.9-0.1,1.4-0.1c0.7,0.5,0.4,1.2,0.5,1.8c0.2,1.3,0.4,1.5,1.6,1.2
			c0.8-0.2,1,0.1,0.9,0.8c0,0.7-0.4,1.2-0.7,1.7c-0.3,0.4-0.7,0.5-1,0.2c-0.8-0.8-0.8,0-1.1,0.4c-0.7,0-1.3,0-2,0
			c-0.3-0.4-0.7-0.7-1.3-0.6c-1.2,0-2-0.6-2.5-1.5c-0.3-0.6-0.7-1-1.4-1c-0.6,0-1-0.3-1.1-1c0-0.7-0.4-1-1.1-1.1
			C372.2,427.7,371.7,427.7,372,427z"/>
		<path class="st15" d="M365.7,433c-0.5-1.1,0.3-2.4-1.1-3.3c-0.9-0.6-0.6-1.7,0.1-2.6c1.8,0,3.5,0,5.3,0c0.2,0.2,0.3,0.5,0.3,0.8
			c0,1,0.4,1.6,1.4,1.9c1.2,0.4,0.7,1.5,0.6,2.3c-0.1,0.8-0.5,1.1-1.3,1.1C369.3,433,367.5,433.3,365.7,433z"/>
		<path class="st16" d="M365.7,433c1.8,0,3.6,0,5.3,0c1.6,0,0.8-1.4,1.1-2.1c0.3-0.6-0.1-0.9-0.8-1c-0.9,0-1.4-0.6-1.4-1.6
			c0-0.5,0-0.9,0-1.4c0.7,0,1.3,0,2,0c0,0.1,0.1,0.3,0.1,0.3c1.1,0.1,2.2,0.2,2,1.8c-0.1,0.4,0.5,0.4,0.8,0.3c0.8-0.1,1.3,0.3,1.5,1
			c0.5,1.1,1.3,1.7,2.5,1.6c0.8-0.1,1.2,0.1,1.1,1c-11.3,0.3-22.6,0.3-34,0.3c-0.4,0.1-0.9,0.4-1.1-0.3c0.3-0.3,0.7-0.2,1,0
			c4.7,0,9.3,0,14,0C361.9,433,363.8,433,365.7,433z"/>
		<path class="st17" d="M382,427c-0.5,0-1,0-1.5,0c2.9-0.4,5.7-0.2,8.6-0.1c1.5,0.1,3.1,0,4.6,0.1c0.4,0.2,0.3,0.4,0.1,0.6
			c-1.5,0.6-2.1,1.9-2.7,3.1c-0.2,0.3,0,0.5,0.1,0.8c0.1,0.8-0.5,1.1-1.1,1.5c-1.5,0-3,0-4.5,0c-0.4-0.3-0.4-0.7-0.2-1.1
			c0.5-1.2,1-2.5,1.7-3.6c0.5-0.8,0.2-0.9-0.5-0.9c-1,0-2.1,0-3.1,0C382.9,427.3,382.4,427.4,382,427z"/>
		<path class="st18" d="M426,426.7c-1,0-2,0-3,0c-0.8,0.3-1.5,0.7-2.4,0.6c-1.1-0.1-2.1,0.1-2.9,1c-0.8,0.9-1.7,1-2.8,0.9
			c-0.4,0-0.8-0.1-1.2,0.2c-0.3,0.4-0.4,1-0.4,1.5c0,0.7-0.2,1.3-0.9,1.6c-0.5,0-0.9,0.2-1.4,0.1c-1.2-0.1-1.3-0.2-1.4-1.9
			c-0.1-0.9,0.1-1.5,1.1-1.6c1.4-0.1,2-0.9,2.2-2.1c0.3-0.4,0.8,0,1.1-0.4c4-0.2,8-0.2,12-0.1C426.1,426.6,426.1,426.6,426,426.7
			C426,426.7,426,426.7,426,426.7z"/>
		<path class="st19" d="M382,427c1.6,0,3.2,0,4.9,0c0.4,0,0.9-0.2,1.1,0.3c0.2,0.4-0.3,0.6-0.5,0.9c-0.9,1.5-1.8,2.9-2,4.7
			c-1.2,0-2.3,0-3.5,0c0.1-0.4-0.3-0.8,0.3-1.2c0.7-0.4,0.5,0.3,0.8,0.5c0.5,0.4,1.2-0.2,1.4-1.1c0.1-0.4,0-0.7,0.1-1.1
			c-0.4-0.2-0.5,0.2-0.7,0.3c-0.8,0.4-1.7-0.1-1.8-1C381.9,428.6,382,427.8,382,427z"/>
		<path class="st20" d="M412,432.8c-0.3,0-0.6,0.1-1,0.1c-4.9,0-9.7,0-14.6,0c-1.3-0.2-1.4-0.3-0.7-1.4c0.9-1.3,2-2.4,3.1-3.5
			c0.4-0.4,0.8-0.7,1.2-1.1c0.3,0,0.6-0.1,1,0.1c0.2,0.7,0.2,1.4,0.3,2.1c0.1,2.2-0.7,3.1-3,3.3c2.1,0,4.3,0.1,6.4,0
			c2.1,0,4.1-0.1,6.2,0.3C411.3,432.7,411.7,432.5,412,432.8z"/>
		<path class="st21" d="M393.5,427.5c0.2-0.1,0.2-0.3,0.3-0.5c0.7-0.3,1.4-0.1,2.1-0.1c0.6,0.3,0.4,0.7,0.3,1.2
			c-0.1,0.7-0.4,1.4-0.7,2c-0.4,0.7-0.9,1.3-0.8,2.1c0,0.4-0.4,0.6-0.7,0.8c-1.3,0-2.7,0-4,0c0.2-0.6,0.9-0.8,1-1.5
			c-0.1-0.1-0.2-0.3-0.1-0.4C391.9,430,392.4,428.5,393.5,427.5z"/>
		<path class="st22" d="M394,433c0.2-2.2,2.1-3.7,2-6c1.3-0.3,2.5-0.1,3.8-0.1c0.1,0,0.1,0.1,0.2,0.1c0,0.4,0.1,0.9-0.6,1
			c-0.5,0.1-0.7,0.5-0.9,0.8c-0.6,1.2-1.9,1.8-2.5,2.9c-0.5,0.8-0.2,1,0.5,1.2C395.6,432.9,394.8,433,394,433z"/>
		<path class="st10" d="M345,433c0.3,0.4,0.7,0.2,1,0.3c-1.4,0.4-2.7,0.2-4.1,0.1c-1.3,0-2.6,0-3.9,0c-0.9,0.1-1.7,0.1-2.6,0
			c-0.3-0.3-0.8-0.1-1.2-0.4c3.2,0,6.5,0,9.7,0C344.3,432.7,344.7,432.7,345,433z"/>
		<path class="st23" d="M353.5,427.3c-4.7,0-9.4,0-14.1,0c-0.4,0-0.9,0.1-1.3-0.1c5.1-0.1,10.3-0.1,15.4-0.1
			C353.5,427.1,353.5,427.2,353.5,427.3L353.5,427.3z"/>
		<path class="st24" d="M422,432.5c2.7,0,5.3,0,8,0c2.5,0,5,0,7.5,0c0.1,0,0.1,0.1,0.1,0.1c0,0,0,0.1-0.1,0.1c-5.2,0-10.3,0-15.5,0
			C421.9,432.7,421.9,432.6,422,432.5C421.9,432.5,422,432.5,422,432.5z"/>
		<path class="st25" d="M491,427c-0.1-0.7-0.7-0.5-1.1-0.5c-2.6,0-5.3,0-7.9,0c-0.1,0-0.1-0.1-0.1-0.2c0-0.1,0-0.1,0.1-0.1
			c3.2,0,6.4,0,9.6,0C491.6,426.5,491.3,426.8,491,427z"/>
		<path class="st26" d="M401,427c-0.3,0-0.7,0-1,0c0,0,0,0,0,0c-0.1,0-0.1-0.1-0.1-0.1c0,0,0.1-0.1,0.1-0.1c4.7,0,9.3,0,14-0.1
			c-0.2,0.4-0.6,0.2-1,0.3c-1.3,0.7-2.7,0.3-4,0.4c-2.1,0.1-4.2,0-6.3,0C402.1,427.4,401.5,427.4,401,427z"/>
		<path class="st27" d="M482,426.2c0,0.1,0,0.2,0,0.2c-3.7,0-7.4,0-11,0c-0.1-0.1-0.1-0.1,0-0.1c0,0,0-0.1,0.1-0.1
			C474.6,426.3,478.3,426.3,482,426.2z"/>
		<path class="st28" d="M400,426.8c0,0.1,0,0.1,0,0.2c-1.3,0-2.7,0-4,0c-0.7,0-1.5,0-2.2,0c-1.6-0.1-3.2,0.2-4.7-0.2
			C392.7,426.8,396.3,426.8,400,426.8z"/>
		<path class="st29" d="M422,432.5c0,0.1,0,0.1,0,0.2c-3.3,0-6.7,0-10,0.1c-0.3,0-0.7-0.1-1-0.1c-0.1,0-0.1-0.1-0.1-0.1
			c0-0.1,0.1-0.1,0.1-0.1c0.5,0,1,0,1.5,0c0.1,0,0.1-0.1,0.2-0.1c2.7-0.3,5.4-0.6,8,0.1C421.2,432.5,421.6,432.5,422,432.5z"/>
		<path class="st30" d="M471,426.3c0,0.1,0,0.1,0,0.2c-3.1,0-6.3,0-9.4,0c0-0.1,0-0.1,0-0.2C464.7,426.3,467.8,426.3,471,426.3z"/>
		<path class="st31" d="M437.5,432.7c0-0.1,0-0.1,0-0.2c2.7,0.2,5.5-0.4,8.3,0.1C443,432.8,440.3,432.8,437.5,432.7z"/>
		<path class="st32" d="M279.5,403c0-2.2-0.2-4.5,0.1-6.7c0.2,2.2,0.1,4.5,0.1,6.7C279.7,403.1,279.6,403.1,279.5,403z"/>
		<path class="st33" d="M457.2,426.5c-1.7,0.4-3.3,0-5-0.1c1.7-0.1,3.3-0.1,5-0.1C457.3,426.3,457.3,426.4,457.2,426.5
			C457.3,426.5,457.3,426.5,457.2,426.5z"/>
		<path class="st34" d="M438.7,404.5c0.6-0.8,0.2-1.7,0.3-2.5c0.1-0.9,0-1.8,0.3-2.8c0,0.7,0,1.4,0,2.1c0,1.2,0,2.4,0,3.7
			C439.1,404.8,438.9,404.7,438.7,404.5z"/>
		<path class="st35" d="M279.5,394.5c-0.8-1.5-0.4-3.2-0.5-4.8C279.4,391.3,279.6,392.9,279.5,394.5z"/>
		<path class="st36" d="M236,397c-0.4-1.6-0.3-3.1-0.1-4.7C236.1,393.9,236,395.4,236,397z"/>
		<path class="st37" d="M257.6,341c-1.1-0.4-1.7,0.6-2.6,1C255.9,340.4,256.3,340.2,257.6,341z"/>
		<path class="st38" d="M457.2,426.5c0-0.1,0-0.1,0-0.2c1.4,0,2.8,0,4.3,0c0,0.1,0,0.1,0,0.2C460.1,426.5,458.7,426.5,457.2,426.5z"
			/>
		<path class="st11" d="M338,433.4c1.3-0.2,2.6-0.2,3.9,0C340.6,433.5,339.3,433.5,338,433.4z"/>
		<path class="st10" d="M353.5,427.2c0-0.1,0-0.1,0-0.2c1.3,0,2.7,0,4,0C356.2,427.5,354.8,427.1,353.5,427.2z"/>
		<path class="st39" d="M426,426.7c0-0.1,0-0.1,0-0.2c1.2,0,2.5,0,3.7,0C428.5,427,427.2,426.6,426,426.7z"/>
		<path class="st40" d="M278.5,414.4c0.1-1-0.3-2,0.5-2.9C278.9,412.5,278.9,413.4,278.5,414.4z"/>
		<path class="st41" d="M274,369c-1-0.2-1-0.8-0.5-1.5C273.8,367.9,274,368.4,274,369z"/>
		<path class="st42" d="M279,410.6c0.1-0.9-0.4-1.8,0.3-2.6C279.2,408.9,279.5,409.8,279,410.6z"/>
		<path class="st43" d="M278,383c-0.6-0.6-0.5-1.4-0.5-2.1C277.8,381.6,278,382.3,278,383z"/>
		<path class="st44" d="M235.7,392c-0.5-0.8-0.2-1.7-0.2-2.5C235.9,390.3,235.8,391.1,235.7,392z"/>
		<path class="st45" d="M263,348c-0.7-0.2-1.1-0.6-1-1.3C262.5,347,262.8,347.5,263,348z"/>
		<path class="st41" d="M274.5,370.2c-0.6-0.3-0.5-0.8-0.4-1.3C274.3,369.3,274.6,369.7,274.5,370.2z"/>
		<path class="st46" d="M279.5,403c0.1,0,0.1,0,0.2,0c0.1,0.6,0.1,1.2-0.2,1.8C279.5,404.2,279.5,403.6,279.5,403z"/>
		<path class="st47" d="M276,374.7c-0.7-0.3-0.4-1-0.5-1.5C275.8,373.7,275.9,374.2,276,374.7z"/>
		<path class="st48" d="M278.8,388c-0.6-0.5-0.2-1.2-0.3-1.8C278.9,386.8,278.7,387.4,278.8,388z"/>
		<path class="st49" d="M275.5,427.3c0.1-0.5-0.3-1.1,0.5-1.3C275.9,426.4,275.9,426.9,275.5,427.3z"/>
		<path class="st50" d="M231,370.3c-0.6-0.3-0.5-0.8-0.5-1.3C230.9,369.3,231,369.8,231,370.3z"/>
		<path class="st51" d="M274,431.8c0.1-0.5-0.3-1.1,0.5-1.3C274.4,431,274.3,431.4,274,431.8z"/>
		<path class="st52" d="M273.5,433.1c0-0.4-0.2-0.9,0.5-1.1C273.9,432.4,273.9,432.8,273.5,433.1z"/>
		<path class="st53" d="M272.5,365c-0.7-0.1-0.5-0.6-0.5-1.1C272.3,364.2,272.4,364.6,272.5,365z"/>
		<path class="st54" d="M277.5,419.7c0-0.4-0.2-0.9,0.3-1.2C277.7,418.9,277.9,419.4,277.5,419.7z"/>
		<path class="st55" d="M278,417.3c0-0.4-0.2-0.9,0.2-1.3C278.2,416.4,278.4,416.9,278,417.3z"/>
		<path class="st56" d="M270.5,360.8c-0.5-0.2-0.5-0.6-0.5-1.1C270.3,360,270.5,360.3,270.5,360.8z"/>
		<path class="st0" d="M235.5,325.2c-2.9,3.8-5.9,7.7-8.8,11.5c-4.3,5.6-8.5,11.2-12.8,16.8c-0.5,0.6-0.8,0.8-1.6,0.4
			c-30.4-16.4-68.2,1.1-75.4,34.9c-6,28.5,12.6,56.5,41.2,61.7c18,3.3,33.6-1.9,46.7-14.7c0.8-0.8,1.1-0.6,1.7,0.1
			c7.1,8.6,14.3,17.3,21.5,25.9c0.6,0.7,0.7,1.1-0.1,1.9c-13.3,12.3-28.8,19.9-46.7,22.7c-39.9,6.1-78.7-15.5-94.6-52.6
			c-5.4-12.7-7.6-26-6.8-39.8c2.2-38.4,29.8-71.7,68-80.4c23.5-5.4,45.7-1.6,66.3,10.9c0.4,0.2,0.7,0.4,1,0.7
			C235.4,325,235.4,325.1,235.5,325.2z"/>
		<path class="st57" d="M213,434c2.1-1.6,4.1-3.3,5.8-5.2c0.5-0.1,0.8-0.3,0.9-0.8c0.1-0.1,0.1-0.1,0.2-0.2c0.3,0.1,0.7,0.4,0.5,0.6
			c-0.7,0.7-0.8,1.8-1.9,2.3c-0.6,0.3-1.9,0.7-1.7,2.1c0.1,0.5-0.7,1.5-1.6,1.1c-0.7-0.3-0.9,0-1.2,0.4c-0.2,0.2-0.4,0.7-0.7,0.6
			C212.7,434.8,213.4,434.2,213,434z"/>
		<path class="st58" d="M194,498.7c-0.3,0.3-0.7,0.2-1,0.2c-3.3-0.1-6.7,0.2-10-0.2c-0.1,0-0.1-0.1-0.1-0.1c0,0,0.1-0.1,0.1-0.1
			c2.5,0.2,4.9,0.2,7.4,0.2c1.2,0,2.4-0.1,3.6-0.1C194,498.6,194,498.7,194,498.7z"/>
		<path class="st59" d="M88.8,402c-0.3-2-0.4-4,0-6c0.1-0.1,0.1-0.1,0.2,0c0,2,0,4,0,6C88.9,402.1,88.8,402.1,88.8,402z"/>
		<path class="st60" d="M183.6,299.3c0.1-0.1,0.2-0.2,0.3-0.2c3.3,0,6.6,0,9.8,0c0.1,0,0.2,0.1,0.3,0.2
			C190.5,299.3,187,299.3,183.6,299.3z"/>
		<path class="st57" d="M210.8,435.3c0.7-0.4,1.3-0.8,2-1.2c0,0.4,0.1,0.8-0.2,1.1c-0.3,0.3,0,0.9-0.7,0.9
			C211.3,436,211,435.8,210.8,435.3z"/>
		<path class="st61" d="M190.5,358.2c-2.3,0-4.5,0.4-6.8,0.2c2.2-0.5,4.5-0.5,6.8-0.4C190.5,358.1,190.5,358.2,190.5,358.2z"/>
		<path class="st62" d="M115.1,466.5c-1.3-0.6-2.1-1.6-2.6-3C113.5,464.4,114.4,465.4,115.1,466.5z"/>
		<path class="st63" d="M90,414c-0.8-0.9-0.4-2-0.5-3C89.9,412,90,413,90,414z"/>
		<path class="st64" d="M192,441.5c1.1-0.6,2.2-0.5,3.4-0.4C194.3,441.4,193.2,441.5,192,441.5z"/>
		<path class="st65" d="M190.5,358.2c0-0.1,0-0.1,0-0.2c1.1,0.3,2.2-0.1,3.2,0.4C192.7,358.5,191.6,358.6,190.5,358.2z"/>
		<path class="st66" d="M98.1,441c-0.6-0.2-1.3-0.4-0.5-1.2C98,440,98,440.5,98.1,441z"/>
		<path class="st67" d="M89.5,387c-0.1-1-0.1-2.1,0.5-3C90,385,89.9,386,89.5,387z"/>
		<path class="st68" d="M202.3,360.5c-0.7,0.7-1.1,0.2-1.3-0.5C201.5,359.9,202,360,202.3,360.5z"/>
		<path class="st69" d="M89,392.3c0.1-0.9-0.3-1.9,0.3-2.8C89.2,390.5,89.5,391.4,89,392.3z"/>
		<path class="st70" d="M89,396l-0.1,0c0,0-0.1,0-0.1,0c0.1-0.9-0.2-1.8,0.2-2.7C89,394.2,89,395.1,89,396z"/>
		<path class="st71" d="M88.8,402c0.1,0,0.1,0,0.2,0c0,0.9,0,1.8,0,2.7C88.5,403.9,88.9,402.9,88.8,402z"/>
		<path class="st72" d="M194,498.7c0-0.1,0-0.1,0-0.2c0.8,0,1.7,0,2.5,0C195.7,499,194.9,498.7,194,498.7z"/>
		<path class="st73" d="M177.3,299.8c0.8-0.6,1.7-0.2,2.5-0.3C179,299.9,178.1,299.7,177.3,299.8z"/>
		<path class="st74" d="M197.4,299.5c0.8,0.1,1.7-0.3,2.5,0.3C199.1,299.7,198.3,299.9,197.4,299.5z"/>
		<path class="st75" d="M179.4,440.5c0.7,0,1.5-0.2,2.1,0.5C180.8,440.9,180.1,440.8,179.4,440.5z"/>
		<path class="st76" d="M177.4,440c0.6,0,1.4-0.3,1.8,0.5C178.6,440.5,178,440.3,177.4,440z"/>
		<path class="st77" d="M92,424c-0.5-0.5-0.5-1.1-0.5-1.8C91.9,422.7,92.1,423.3,92,424z"/>
		<path class="st78" d="M91,419.5c-0.6-0.6-0.5-1.3-0.5-2.1C90.9,418.1,91,418.8,91,419.5z"/>
		<path class="st79" d="M183,498.5c0,0.1,0,0.1,0,0.2c-0.7-0.1-1.4,0.2-2-0.2C181.7,498.5,182.3,498.5,183,498.5z"/>
		<path class="st68" d="M200.8,360c-0.6,0-1.2,0.2-1.6-0.5C199.8,359.5,200.4,359.6,200.8,360z"/>
		<path class="st80" d="M182,441c0.6,0,1.2,0,1.7,0.1c0,0,0,0.1,0,0.1c0,0,0,0.1-0.1,0.1C183.1,441.2,182.5,441.4,182,441z"/>
		<path class="st81" d="M212.5,302c0.5,0.1,1.2-0.4,1.5,0.5C213.5,302.4,212.9,302.4,212.5,302z"/>
		<path class="st82" d="M205.3,300.5c0.6,0.1,1.3-0.4,1.7,0.4C206.4,300.7,205.8,301,205.3,300.5z"/>
		<path class="st83" d="M161.1,495c-0.6,0.1-1.1,0-1.6-0.5C160.1,494.5,160.6,494.6,161.1,495z"/>
		<path class="st84" d="M89.5,410.5c-0.4-0.5-0.3-1.1-0.1-1.7C89.6,409.3,89.5,409.9,89.5,410.5z"/>
		<path class="st85" d="M94.5,432.3c-0.6-0.3-0.5-0.8-0.5-1.3C94.4,431.3,94.5,431.7,94.5,432.3z"/>
		<path class="st86" d="M202,300c0.6,0.1,1.2-0.3,1.8,0.3C203.1,300.2,202.5,300.4,202,300z"/>
		<path class="st87" d="M203,439c0.3-0.6,0.8-0.5,1.3-0.5C204,438.9,203.5,439,203,439z"/>
		<path class="st88" d="M208.5,436.6c0-0.7,0.6-0.6,1-0.6C209.3,436.3,208.9,436.5,208.5,436.6z"/>
		<path class="st89" d="M222.4,305c0.4,0,0.9-0.2,1.1,0.5C223.1,305.4,222.7,305.3,222.4,305z"/>
		<path class="st90" d="M171.9,438c0.4,0,1-0.2,1.1,0.5C172.6,438.5,172.2,438.3,171.9,438z"/>
		<path class="st91" d="M204.5,438.5c0.1-0.7,0.6-0.5,1.1-0.5C205.3,438.3,204.9,438.4,204.5,438.5z"/>
		<path class="st92" d="M201.8,439.5c0.3-0.6,0.8-0.5,1.3-0.5C202.7,439.3,202.2,439.5,201.8,439.5z"/>
		<path class="st93" d="M200.3,440c0.3-0.6,0.8-0.5,1.3-0.5C201.2,439.8,200.7,439.9,200.3,440z"/>
		<path class="st94" d="M217.9,303.5c0.5,0,1-0.1,1.3,0.5C218.8,303.9,218.3,303.9,217.9,303.5z"/>
		<path class="st95" d="M177.5,498.1c-0.5,0.2-1,0.3-1.5-0.1C176.5,498,177,497.9,177.5,498.1z"/>
		<path class="st96" d="M173,438.5c0.4,0,0.9-0.2,1,0.5C173.7,438.8,173.3,438.8,173,438.5z"/>
		<path class="st97" d="M97.5,439.7c-0.5-0.2-0.6-0.6-0.5-1.1C97.4,439,97.5,439.3,97.5,439.7z"/>
		<path class="st98" d="M183.2,358.5c-0.4,0.4-0.9,0.2-1.3,0.2C182.3,358.3,182.8,358.5,183.2,358.5z"/>
		<path class="st99" d="M108.6,458.5c-0.5,0-0.6-0.4-0.6-0.8C108.3,457.9,108.5,458.1,108.6,458.5z"/>
		<path class="st100" d="M112,463c-0.5-0.1-0.5-0.4-0.5-0.8C111.8,462.4,112.1,462.6,112,463z"/>
		<path class="st101" d="M121.8,473c-0.4,0-0.8,0-0.8-0.6C121.4,472.5,121.6,472.7,121.8,473z"/>
		<path class="st102" d="M130.3,480c-0.4,0-0.8,0-0.8-0.5C129.9,479.4,130.1,479.7,130.3,480z"/>
		<path class="st103" d="M131.8,481c-0.4,0-0.8,0-0.8-0.6C131.4,480.5,131.6,480.7,131.8,481z"/>
		<path class="st104" d="M133.3,482c-0.4,0-0.8,0-0.8-0.5C132.9,481.5,133.1,481.7,133.3,482z"/>
		<path class="st105" d="M134.8,483c-0.4,0-0.8,0-0.8-0.5C134.4,482.5,134.6,482.7,134.8,483z"/>
		<path class="st106" d="M136.3,484c-0.4,0-0.8,0-0.8-0.5C135.9,483.5,136.1,483.7,136.3,484z"/>
		<path class="st107" d="M144.4,488.5c-0.4,0-0.8,0.1-0.9-0.5C143.9,488,144.1,488.2,144.4,488.5z"/>
		<path class="st108" d="M149.8,491c-0.5,0.1-0.9,0-1.1-0.5C149.2,490.5,149.5,490.7,149.8,491z"/>
		<path class="st109" d="M95,364.3c0-0.4-0.1-0.7,0.4-0.8C95.5,363.8,95.3,364.1,95,364.3z"/>
		<path class="st110" d="M210.8,364.5c-0.4,0-0.8,0-0.8-0.5C210.4,364,210.6,364.2,210.8,364.5z"/>
		<path class="st111" d="M164.5,365.9c0,0.6-0.4,0.6-0.8,0.5C163.9,366.2,164.1,366,164.5,365.9z"/>
		<path class="st112" d="M168.7,436.5c0.5,0,0.8,0,1,0.5C169.4,437,169,436.8,168.7,436.5z"/>
		<path d="M219.7,427.9c0,0.6-0.2,1.1-0.9,0.8C219.1,428.5,219.4,428.2,219.7,427.9z"/>
		<path class="st23" d="M345,433c-0.3,0-0.7,0-1,0c0-0.8,0-1.6,0-2.5c0-1.1,0.3-2.3-1-3c2.9,0,5.9,0,8.8,0c0.8,0,1.2,0.2,1.2,1.1
			c-0.1,0.7,0.1,1.4-1.1,1.5c-1.6,0.1-3.3,0.1-4.8,0.9c-0.9,0.5-1.3,1.1-1.1,2C345.7,433,345.3,433,345,433z"/>
		<path class="st113" d="M420.7,432.5c-2.7,0-5.5,0-8.2,0c0.3-0.7,0.6-1.5,0.5-2.3c-0.1-0.4,0.3-0.6,0.5-0.9
			c0.3-0.2,0.5-0.2,0.5,0.3c0,0.4,0.1,0.8,0.6,0.7c1,0,2.1,0.1,3.1,0c1.7-0.2,2.2,0,2.8,1.6C420.6,432,420.6,432.3,420.7,432.5z"/>
		<path class="st39" d="M414,429.5c-0.1-0.2-0.3-0.2-0.5-0.3c0.3-0.4,0.7-0.3,1-0.2c1.7,0.3,2.8-0.6,3.8-1.7
			c0.2-0.2,0.3-0.3,0.6-0.3c1.4,0,2.7,0,4.1-0.2c-0.5,1.8-2,1.8-3.5,2.4C417.5,429.9,415.8,429.3,414,429.5z"/>
		<path class="st114" d="M393.5,427.5c-0.6,1.5-1.6,2.7-2.5,4c-0.2,0-0.4-0.1-0.5-0.3C390.4,430.2,392.5,427.7,393.5,427.5z"/>
		<path class="st115" d="M411,432.5c0,0.1,0,0.1,0,0.2c-2.2,0-4.4,0-6.5,0c-1.2-1.3-0.9-2.9,0.8-3.4c0.9-0.3,1.7-0.6,2.6-0.7
			c0.6,0,1.4-0.1,0.7-1.1c-0.3-0.4,0.3-0.3,0.4-0.5c1.3,0,2.7,0,4,0c0,2-0.3,2.3-2.3,2.5c-0.7,0.1-1,0.3-0.8,1
			c0.1,0.3,0.1,0.7,0.1,1C409.9,432.3,410.2,432.6,411,432.5z"/>
		<path class="st116" d="M409,427c0,0.2-0.4,0.4-0.2,0.4c0.4,0.1,0.9,0.2,0.6,0.8c-0.2,0.4-0.5,0.8-1,0.7c-1.1-0.2-2,0.4-3,0.6
			c-1.2,0.2-1.5,1.4-0.9,3.2c-2.5-0.1-4.9,0.3-7.5-0.3c0.3-0.7,0.8-0.5,1.2-0.5c2.4-0.1,3.5-1.5,2.7-3.7c-0.2-0.6,0.1-0.9,0.1-1.3
			C403.7,427,406.3,427,409,427z"/>
	</g>
</g>
<rect x="50" y="140" class="st117" width="512" height="512"/>
</svg>
